<svg width="23" height="24" viewBox="0 0 23 24" fill="none" xmlns="http://www.w3.org/2000/svg">
  <path d="M11.5 23.9945C17.8513 23.9945 23 18.6231 23 11.9972C23 5.37135 17.8513 0 11.5 0C5.14873 0 0 5.37135 0 11.9972C0 18.6231 5.14873 23.9945 11.5 23.9945Z" fill="#58B0E0"/>
  <path fill-rule="evenodd" clip-rule="evenodd" d="M8.6543 15.0179L14.5744 15.0648V20.0804L8.6543 20.0334V15.0179Z" fill="#F9DCA4"/>
  <path fill-rule="evenodd" clip-rule="evenodd" d="M16.3641 22.8705C14.8592 23.6016 13.2208 23.985 11.5608 23.9944C9.90078 24.0038 8.25842 23.6389 6.74609 22.9248V18.7984H16.3637L16.3641 22.8705Z" fill="#E6E6E6"/>
  <path fill-rule="evenodd" clip-rule="evenodd" d="M12.4317 23.9557C12.1246 23.9813 11.814 23.9942 11.5002 23.9945C11.2632 23.9945 11.0281 23.9871 10.7949 23.9724L11.1783 20.4827H12.0752L12.4317 23.9557Z" fill="#E9573E"/>
  <path fill-rule="evenodd" clip-rule="evenodd" d="M9.54953 23.8127C8.28158 23.5664 7.05707 23.1197 5.91828 22.488C4.82446 21.853 3.83686 21.0367 2.99414 20.0711L3.47201 18.8674L8.65447 16.4556C8.65447 18.4792 9.29125 21.6897 9.54953 23.8127Z" fill="#677079"/>
  <path opacity="0.11" fill-rule="evenodd" clip-rule="evenodd" d="M14.5756 15.0485V16.303C12.8145 18.4489 9.4497 18.1453 8.69531 14.9783L14.5756 15.0485Z" fill="black"/>
  <path fill-rule="evenodd" clip-rule="evenodd" d="M11.586 3.27374C19.5062 3.27374 16.4194 16.9662 11.586 16.9662C7.02062 16.9662 3.66588 3.27374 11.586 3.27374Z" fill="#FFE8BE"/>
  <path fill-rule="evenodd" clip-rule="evenodd" d="M6.83416 9.33602C5.6916 9.8559 6.66296 12.3202 7.38199 12.3093C7.08374 11.3451 6.89976 10.3469 6.83416 9.33602Z" fill="#F9DCA4"/>
  <path fill-rule="evenodd" clip-rule="evenodd" d="M16.4283 9.33563C17.5709 9.85551 16.5995 12.3202 15.8809 12.3089C16.1789 11.3448 16.3627 10.3463 16.4283 9.33563Z" fill="#F9DCA4"/>
  <path fill-rule="evenodd" clip-rule="evenodd" d="M8.16139 5.56293C6.92058 6.90554 7.35713 10.622 7.35713 10.622L6.96636 10.4298C4.52716 0.57027 18.7396 0.569881 16.2866 10.4298L15.8958 10.622C15.8958 10.622 16.3327 6.90554 15.0919 5.56293C13.559 7.11403 9.6858 7.10588 8.16139 5.56293Z" fill="#464449"/>
  <path fill-rule="evenodd" clip-rule="evenodd" d="M13.6836 23.7782C16.1985 23.2715 18.4788 21.9025 20.1623 19.8886L19.7567 18.8671L14.5746 16.4552C14.5746 18.4788 13.9419 21.6552 13.6836 23.7782Z" fill="#677079"/>
  <path fill-rule="evenodd" clip-rule="evenodd" d="M14.5748 16.2991L11.625 18.8092L14.0713 21.105C14.0713 21.105 14.7233 17.3373 14.5748 16.2991Z" fill="white"/>
  <path fill-rule="evenodd" clip-rule="evenodd" d="M8.65323 16.2991L11.6265 18.8092L9.15343 21.105C9.15343 21.105 8.50362 17.3373 8.65323 16.2991Z" fill="white"/>
  <path fill-rule="evenodd" clip-rule="evenodd" d="M10.4609 19.8894L11.6284 18.7953L12.7959 19.8894L11.6284 20.9831L10.4609 19.8894Z" fill="#E9573E"/>
  <path fill-rule="evenodd" clip-rule="evenodd" d="M9.5891 23.8287C9.11387 23.7457 8.64413 23.6316 8.18267 23.487C8.16821 23.4754 8.15406 23.4633 8.14024 23.4509L6.82462 20.9699L8.51464 19.7042H6.74609L7.12459 17.0442L8.65421 16.0351C8.72045 18.8966 9.30885 22.1137 9.5891 23.8287Z" fill="#434955"/>
  <path fill-rule="evenodd" clip-rule="evenodd" d="M13.6387 23.7871C13.8575 23.7491 14.0741 23.6963 14.2889 23.638C14.5427 23.5693 14.795 23.4917 15.0458 23.4132L15.0957 23.3965L16.4024 20.9447L14.7124 19.6859H16.4809L16.1024 17.0391L14.5728 16.0351C14.5066 18.8818 13.9185 22.0807 13.6387 23.7871Z" fill="#434955"/>
</svg>