<svg width="30" height="30" viewBox="0 0 30 30" fill="none" xmlns="http://www.w3.org/2000/svg">
  <g clip-path="url(#clip0_101_2214)">
    <path d="M15 30C23.2843 30 30 23.2843 30 15C30 6.71573 23.2843 0 15 0C6.71573 0 0 6.71573 0 15C0 23.2843 6.71573 30 15 30Z" fill="#C2D5D8"/>
    <path d="M15 30C23.2843 30 30 23.2843 30 15C30 6.71573 23.2843 0 15 0C6.71573 0 0 6.71573 0 15C0 23.2843 6.71573 30 15 30Z" fill="#C2D5D8"/>
    <path d="M9.42263 19.639C8.19685 19.639 3.21357 19.3352 1.94373 22.3622C3.32091 24.7924 5.35412 26.7187 7.80638 28.125H9.42263H14.1134C14.1134 28.125 17.8662 26.8327 17.116 23.062C16.3648 19.2916 10.7361 19.639 9.42263 19.639Z" fill="#45998B"/>
    <path d="M17.1152 23.0818C16.4175 19.5758 11.5048 19.613 9.76172 19.6353C11.9013 19.6733 15.6096 20.0703 16.2089 23.0818C16.9591 26.8524 13.2068 28.1642 13.2068 28.1642H14.1129C14.1134 28.1642 17.8662 26.8524 17.1152 23.0818Z" fill="#3F8C7F"/>
    <path d="M9.42182 20.7861C10.6894 20.7861 11.7171 20.3824 11.7171 19.8844C11.7171 19.3865 10.6894 18.9828 9.42182 18.9828C8.1542 18.9828 7.12659 19.3865 7.12659 19.8844C7.12659 20.3824 8.1542 20.7861 9.42182 20.7861Z" fill="#F5F5F5"/>
    <path d="M11.4583 19.4034H11.4592L10.8979 17.6578L9.42252 17.5486L7.9469 17.6578L7.38534 19.4034H7.38627C7.37807 19.4276 7.37268 19.4517 7.37268 19.4761C7.37268 19.8377 8.29026 20.1307 9.42206 20.1307C10.5534 20.1307 11.4712 19.8377 11.4712 19.4761C11.4714 19.4517 11.4667 19.4276 11.4583 19.4034Z" fill="#E6CBC3"/>
    <path d="M11.4584 19.4034H11.4593L10.898 17.6578L9.42261 17.5486L9.1355 17.5697L10.3238 17.6578L10.8851 19.4034H10.8846C10.8928 19.4276 10.898 19.4517 10.898 19.4761C10.898 19.8063 10.1314 20.0789 9.1355 20.1239C9.22925 20.1281 9.32487 20.1307 9.42261 20.1307C10.5542 20.1307 11.4717 19.8377 11.4717 19.4761C11.4715 19.4517 11.4668 19.4276 11.4584 19.4034Z" fill="#D9BFB8"/>
    <path d="M13.6854 10.6218V8.91652C13.6854 7.58644 12.7393 6.52332 9.42261 6.52332C6.10597 6.52332 5.1598 7.58644 5.1598 8.91652V10.6218C5.1598 10.6218 4.50378 10.6703 4.50378 11.1138V12.9285C4.50378 13.372 4.66761 13.7369 5.1598 13.7369C5.1598 15.9539 7.13066 18.4914 9.42261 18.4914C11.7136 18.4914 13.6854 15.9541 13.6854 13.7369C14.1774 13.7369 14.341 13.372 14.341 12.9285V11.1138C14.341 10.6703 13.6854 10.6218 13.6854 10.6218Z" fill="#FFE1D9"/>
    <path d="M9.4226 6.52332C9.33893 6.52332 9.25736 6.52449 9.17627 6.52589C12.2935 6.57769 13.1932 7.61996 13.1932 8.91652V10.6218V13.7369C13.1932 15.8739 11.3613 18.3082 9.17627 18.4809C9.2583 18.4872 9.33963 18.4914 9.4226 18.4914C11.7136 18.4914 13.6854 15.9541 13.6854 13.7369V10.6218V8.91652C13.6854 7.58644 12.7392 6.52332 9.4226 6.52332Z" fill="#F2D6CE"/>
    <path d="M9.4226 6.52332C6.1062 6.52332 5.15979 7.58644 5.15979 8.91652V10.6218V12.4253C5.3112 11.6662 5.74526 9.50199 6.71956 8.79558C7.49534 9.0173 8.4237 9.14644 9.42213 9.14644C10.4206 9.14644 11.3492 9.0173 12.1245 8.79558C13.099 9.50222 13.5328 11.6662 13.6845 12.4253V10.6218V8.91652C13.6854 7.58644 12.7392 6.52332 9.4226 6.52332Z" fill="#99602E"/>
    <path d="M9.42262 6.52332C9.33895 6.52332 9.25785 6.52449 9.17676 6.52589C12.2935 6.57792 13.1932 7.61996 13.1932 8.91652V10.5346C13.4541 11.2769 13.6076 12.036 13.6854 12.4253V10.6218V8.91652C13.6854 7.58644 12.7393 6.52332 9.42262 6.52332Z" fill="#8C582A"/>
    <path d="M8.11893 12.4257C8.48097 12.4257 8.77447 12.2054 8.77447 11.9337C8.77447 11.662 8.48097 11.4418 8.11893 11.4418C7.75688 11.4418 7.46338 11.662 7.46338 11.9337C7.46338 12.2054 7.75688 12.4257 8.11893 12.4257Z" fill="#F5F5F5"/>
    <path d="M8.11903 12.2616C8.30012 12.2616 8.44692 12.1148 8.44692 11.9337C8.44692 11.7526 8.30012 11.6058 8.11903 11.6058C7.93794 11.6058 7.79114 11.7526 7.79114 11.9337C7.79114 12.1148 7.93794 12.2616 8.11903 12.2616Z" fill="#734822"/>
    <path d="M11.0695 12.4257C11.4315 12.4257 11.725 12.2054 11.725 11.9337C11.725 11.662 11.4315 11.4418 11.0695 11.4418C10.7074 11.4418 10.4139 11.662 10.4139 11.9337C10.4139 12.2054 10.7074 12.4257 11.0695 12.4257Z" fill="#F5F5F5"/>
    <path d="M11.0696 12.2616C11.2507 12.2616 11.3975 12.1148 11.3975 11.9337C11.3975 11.7526 11.2507 11.6058 11.0696 11.6058C10.8885 11.6058 10.7417 11.7526 10.7417 11.9337C10.7417 12.1148 10.8885 12.2616 11.0696 12.2616Z" fill="#734822"/>
    <path d="M28.0563 22.3622C26.7865 19.335 21.8032 19.6292 20.5774 19.6292C19.264 19.6292 13.6352 19.2868 12.8847 23.0574C12.1338 26.828 15.8868 28.125 15.8868 28.125H20.5776H22.1941C24.6459 26.7188 26.6791 24.7925 28.0563 22.3622Z" fill="#45998B"/>
    <path d="M15.8601 29.974C16.079 29.9613 16.2963 29.9456 16.5122 29.9241C16.5208 29.9234 16.5293 29.9229 16.5379 29.922C16.7592 29.8992 16.9788 29.8699 17.1972 29.8385C17.2572 29.8294 17.317 29.8203 17.377 29.8106C17.5753 29.779 17.7724 29.7446 17.9679 29.7054C17.9904 29.7007 18.0129 29.6972 18.0358 29.6925C18.2444 29.6494 18.4509 29.6006 18.656 29.5493C18.7211 29.5329 18.7868 29.5158 18.8519 29.4985C19.0237 29.453 19.1948 29.4047 19.3647 29.3529C19.409 29.3391 19.4543 29.3269 19.4983 29.3126C19.6858 29.254 19.8707 29.1905 20.0545 29.1249C20.1286 29.0979 20.2029 29.071 20.2765 29.0428C20.4175 28.9896 20.5568 28.9346 20.6957 28.8774C20.7778 28.8436 20.8589 28.8101 20.9402 28.7749C21.0911 28.71 21.24 28.6423 21.3883 28.5724C21.4729 28.5324 21.5573 28.4911 21.641 28.4499C21.749 28.3962 21.8561 28.3411 21.9628 28.2849C22.0882 28.219 22.2122 28.1517 22.3359 28.0821C22.4416 28.0226 22.5471 27.9626 22.6514 27.901C22.747 27.844 22.8419 27.7856 22.9366 27.7266C23.0116 27.6795 23.0866 27.6314 23.1609 27.5829C23.3348 27.4695 23.5068 27.3528 23.6758 27.2323C23.73 27.1938 23.7848 27.1559 23.8385 27.1165C23.9437 27.0396 24.048 26.9609 24.1507 26.8812C24.1968 26.8458 24.2425 26.8092 24.288 26.7736C24.509 26.5988 24.7261 26.4185 24.937 26.2317C24.9398 26.2294 24.9422 26.2268 24.9447 26.2252C25.0563 26.1263 25.1653 26.0257 25.2733 25.924C25.2963 25.9029 25.3181 25.8811 25.3406 25.86C25.6729 25.5431 25.991 25.2113 26.2931 24.8658C26.2997 24.8585 26.3064 24.8508 26.3128 24.8433C26.9425 24.1198 27.5039 23.3358 27.9874 22.5005H2.01184C2.49536 23.3356 3.05668 24.1198 3.68645 24.8433C3.69278 24.8506 3.69958 24.8583 3.70614 24.8658C4.00825 25.212 4.32629 25.5434 4.65864 25.86C4.68114 25.8813 4.70293 25.9031 4.7259 25.924C4.83395 26.026 4.9434 26.1263 5.0545 26.2252C5.05708 26.2275 5.05942 26.2296 5.06223 26.2317C5.2727 26.4185 5.48973 26.5985 5.71122 26.7736C5.75668 26.8095 5.80239 26.846 5.84856 26.8812C5.95122 26.9611 6.05551 27.0396 6.16075 27.1165C6.21442 27.1559 6.26926 27.1938 6.3234 27.2323C6.49286 27.3528 6.66442 27.4695 6.83833 27.5829C6.91262 27.6314 6.98762 27.6795 7.06262 27.7266C7.15684 27.7856 7.25223 27.844 7.34786 27.901C7.45168 27.9633 7.55762 28.0231 7.66332 28.0821C7.78637 28.1513 7.91106 28.219 8.03645 28.2849C8.14309 28.3409 8.2502 28.3964 8.35825 28.4499C8.44192 28.4913 8.52629 28.5326 8.6109 28.5724C8.7595 28.6423 8.90879 28.7103 9.0602 28.7754C9.14083 28.8099 9.22192 28.8436 9.30301 28.8771C9.44223 28.9343 9.58169 28.9896 9.72278 29.0426C9.79637 29.0705 9.87067 29.0977 9.94473 29.1244C10.1285 29.1903 10.3134 29.254 10.5007 29.3126C10.545 29.3267 10.5902 29.3391 10.6347 29.3529C10.8044 29.4045 10.9753 29.4528 11.1475 29.4985C11.2125 29.5158 11.2781 29.5327 11.3435 29.5491C11.5486 29.6006 11.755 29.6494 11.9636 29.6921C11.9864 29.697 12.0091 29.7007 12.0316 29.7052C12.2271 29.7443 12.4242 29.779 12.6225 29.8106C12.682 29.8203 12.742 29.8294 12.802 29.8381C13.0209 29.8702 13.24 29.8995 13.4615 29.9217C13.4697 29.9227 13.4784 29.9231 13.4871 29.9238C13.7029 29.9456 13.9207 29.9611 14.1391 29.9735C14.1972 29.9768 14.2551 29.9799 14.3132 29.9824C14.5418 29.993 14.7703 30 15 30C15.2297 30 15.4582 29.993 15.6857 29.9827C15.7439 29.9801 15.802 29.9771 15.8601 29.974Z" fill="#45998B"/>
    <path d="M20.917 19.6357C23.0564 19.6737 26.7644 20.0705 27.3639 23.0817C27.3867 23.1945 27.4045 23.3051 27.4186 23.4136C27.6454 23.0799 27.8557 22.7349 28.0556 22.3831C26.8816 19.5832 22.5346 19.6146 20.917 19.6357Z" fill="#3F8C7F"/>
    <path d="M20.5781 20.7861C21.8457 20.7861 22.8733 20.3824 22.8733 19.8844C22.8733 19.3865 21.8457 18.9828 20.5781 18.9828C19.3104 18.9828 18.2828 19.3865 18.2828 19.8844C18.2828 20.3824 19.3104 20.7861 20.5781 20.7861Z" fill="#F5F5F5"/>
    <path d="M22.613 19.4034H22.6139L22.0526 17.6578L20.577 17.5486L19.1016 17.6578L18.54 19.4034H18.5409C18.5327 19.4276 18.5273 19.4517 18.5273 19.4761C18.5273 19.8377 19.4449 20.1307 20.5765 20.1307C21.7083 20.1307 22.6259 19.8377 22.6259 19.4761C22.6268 19.4517 22.6219 19.4276 22.613 19.4034Z" fill="#E6CBC3"/>
    <path d="M22.6129 19.4034H22.6139L22.0525 17.6578L20.5769 17.5486L20.29 17.5697L21.4783 17.6578L22.0399 19.4034H22.0389C22.0474 19.4276 22.0525 19.4517 22.0525 19.4761C22.0525 19.8063 21.2859 20.0789 20.29 20.1239C20.3838 20.1281 20.4794 20.1307 20.5769 20.1307C21.7087 20.1307 22.6263 19.8377 22.6263 19.4761C22.6268 19.4517 22.6218 19.4276 22.6129 19.4034Z" fill="#D9BFB8"/>
    <path d="M24.84 10.6218V8.91652C24.84 7.58644 23.8938 6.52332 20.5772 6.52332C17.2605 6.52332 16.3146 7.58644 16.3146 8.91652V10.6218C16.3146 10.6218 15.6586 10.6703 15.6586 11.1138V12.9285C15.6586 13.372 15.8224 13.7369 16.3146 13.7369C16.3146 15.9539 18.2857 18.4914 20.5772 18.4914C22.8686 18.4914 24.84 15.9541 24.84 13.7369C25.3319 13.7369 25.4958 13.372 25.4958 12.9285V11.1138C25.4958 10.6703 24.84 10.6218 24.84 10.6218Z" fill="#FFE1D9"/>
    <path d="M20.5774 6.52332C20.4937 6.52332 20.4124 6.52449 20.3315 6.52589C23.4485 6.57769 24.3483 7.61996 24.3483 8.91652V10.6218V13.7369C24.3483 15.8739 22.5166 18.3082 20.3315 18.4809C20.4136 18.4872 20.4949 18.4914 20.5774 18.4914C22.8689 18.4914 24.8402 15.9541 24.8402 13.7369V10.6218V8.91652C24.84 7.58644 23.8938 6.52332 20.5774 6.52332Z" fill="#F2D6CE"/>
    <path d="M20.5774 6.52332C17.261 6.52332 16.3146 7.58644 16.3146 8.91652V10.6218V12.4253C16.4662 11.6662 16.9 9.50199 17.8746 8.79558C18.6504 9.0173 19.5787 9.14644 20.5769 9.14644C21.5751 9.14644 22.5044 9.0173 23.2795 8.79558C24.2538 9.50222 24.6879 11.6662 24.8393 12.4253V10.6218V8.91652C24.84 7.58644 23.8938 6.52332 20.5774 6.52332Z" fill="#99602E"/>
    <path d="M20.5774 6.52332C20.4942 6.52332 20.4131 6.52449 20.332 6.52589C23.4485 6.57792 24.3483 7.61996 24.3483 8.91652V10.5346C24.6094 11.2769 24.7624 12.036 24.8402 12.4253V10.6218V8.91652C24.84 7.58644 23.8938 6.52332 20.5774 6.52332Z" fill="#8C582A"/>
    <path d="M19.2726 12.4257C19.6348 12.4257 19.9284 12.2054 19.9284 11.9337C19.9284 11.662 19.6348 11.4418 19.2726 11.4418C18.9104 11.4418 18.6168 11.662 18.6168 11.9337C18.6168 12.2054 18.9104 12.4257 19.2726 12.4257Z" fill="#F5F5F5"/>
    <path d="M19.2727 12.2616C19.4538 12.2616 19.6006 12.1148 19.6006 11.9337C19.6006 11.7526 19.4538 11.6058 19.2727 11.6058C19.0916 11.6058 18.9448 11.7526 18.9448 11.9337C18.9448 12.1148 19.0916 12.2616 19.2727 12.2616Z" fill="#734822"/>
    <path d="M22.2257 12.4257C22.5879 12.4257 22.8815 12.2054 22.8815 11.9337C22.8815 11.662 22.5879 11.4418 22.2257 11.4418C21.8636 11.4418 21.5699 11.662 21.5699 11.9337C21.5699 12.2054 21.8636 12.4257 22.2257 12.4257Z" fill="#F5F5F5"/>
    <path d="M22.2258 12.2616C22.4069 12.2616 22.5537 12.1148 22.5537 11.9337C22.5537 11.7526 22.4069 11.6058 22.2258 11.6058C22.0448 11.6058 21.8979 11.7526 21.8979 11.9337C21.8979 12.1148 22.0448 12.2616 22.2258 12.2616Z" fill="#734822"/>
    <path d="M19.6875 21.5625H16.4062C15.6307 21.5625 15 22.1932 15 22.9688C15 22.1932 14.3693 21.5625 13.5938 21.5625H10.3125C9.53695 21.5625 8.90625 22.1932 8.90625 22.9688V26.25C8.90625 27.0255 9.53695 27.6562 10.3125 27.6562H13.5938C14.3693 27.6562 15 27.0255 15 26.25C15 27.0255 15.6307 27.6562 16.4062 27.6562H19.6875C20.463 27.6562 21.0938 27.0255 21.0938 26.25V22.9688C21.0938 22.1932 20.463 21.5625 19.6875 21.5625Z" fill="#F5F5F5"/>
    <path d="M17.5781 25.0781H12.4219C12.1631 25.0781 11.9531 24.8681 11.9531 24.6094C11.9531 24.3506 12.1631 24.1406 12.4219 24.1406H17.5781C17.8369 24.1406 18.0469 24.3506 18.0469 24.6094C18.0469 24.8681 17.8369 25.0781 17.5781 25.0781Z" fill="#FFD464"/>
    <path d="M19.6875 22.0312H16.4062C15.8892 22.0312 15.4688 22.4517 15.4688 22.9688V23.6719H16.4062V22.9688H19.6875L19.6861 26.25H16.4062V25.5469H15.4688V26.25C15.4688 26.767 15.8892 27.1875 16.4062 27.1875H19.6875C20.2045 27.1875 20.625 26.767 20.625 26.25V22.9688C20.625 22.4517 20.2045 22.0312 19.6875 22.0312Z" fill="#E16B5A"/>
    <path d="M13.5938 25.5469V26.25H10.3125V22.9688H13.5938L13.5935 23.6719H14.5312V22.9688C14.5312 22.4517 14.1108 22.0312 13.5938 22.0312H10.3125C9.79547 22.0312 9.375 22.4517 9.375 22.9688V26.25C9.375 26.767 9.79547 27.1875 10.3125 27.1875H13.5938C14.1108 27.1875 14.5312 26.767 14.5312 26.25V25.5469H13.5938Z" fill="#E16B5A"/>
  </g>
  <defs>
    <clipPath id="clip0_101_2214">
      <rect width="30" height="30" fill="white"/>
    </clipPath>
  </defs>
</svg>