<svg width="30" height="30" viewBox="0 0 30 30" fill="none" xmlns="http://www.w3.org/2000/svg">
  <path d="M11.25 5.625C11.25 6.61956 11.6451 7.57339 12.3483 8.27665C13.0516 8.97991 14.0054 9.375 15 9.375C15.9946 9.375 16.9484 8.97991 17.6516 8.27665C18.3549 7.57339 18.75 6.61956 18.75 5.625C18.75 4.63044 18.3549 3.67661 17.6516 2.97335C16.9484 2.27009 15.9946 1.875 15 1.875C14.0054 1.875 13.0516 2.27009 12.3483 2.97335C11.6451 3.67661 11.25 4.63044 11.25 5.625Z" fill="#FFEA00"/>
  <path d="M3.22332 21.7814C3.46954 22.2079 3.79735 22.5818 4.18805 22.8816C4.57874 23.1814 5.02466 23.4013 5.50035 23.5288C5.97604 23.6562 6.47218 23.6888 6.96044 23.6245C7.4487 23.5602 7.91952 23.4004 8.34601 23.1542C8.77251 22.9079 9.14632 22.5801 9.44612 22.1894C9.74591 21.7987 9.96581 21.3528 10.0933 20.8771C10.2207 20.4014 10.2532 19.9052 10.1889 19.417C10.1246 18.9287 9.96477 18.4579 9.71851 18.0314C9.4723 17.6049 9.14449 17.2311 8.75379 16.9313C8.3631 16.6314 7.91718 16.4115 7.44149 16.2841C6.9658 16.1566 6.46966 16.1241 5.9814 16.1883C5.49314 16.2526 5.02232 16.4124 4.59583 16.6587C4.16933 16.9049 3.79552 17.2327 3.49572 17.6234C3.19593 18.0141 2.97603 18.4601 2.84858 18.9358C2.72113 19.4115 2.68863 19.9076 2.75293 20.3959C2.81722 20.8841 2.97707 21.3549 3.22332 21.7814Z" fill="#FFEA00"/>
  <path d="M21.6674 23.1886C22.0939 23.4349 22.5647 23.5947 23.0529 23.659C23.5412 23.7232 24.0373 23.6907 24.513 23.5633C24.9887 23.4358 25.4346 23.2159 25.8253 22.9161C26.216 22.6163 26.5438 22.2425 26.79 21.816C27.0362 21.3896 27.1961 20.9188 27.2603 20.4305C27.3246 19.9423 27.2921 19.4461 27.1646 18.9705C27.0372 18.4948 26.8173 18.0489 26.5175 17.6582C26.2177 17.2675 25.8439 16.9397 25.4174 16.6934C24.9909 16.4472 24.5201 16.2874 24.0319 16.2231C23.5436 16.1588 23.0475 16.1914 22.5718 16.3188C22.0962 16.4463 21.6503 16.6662 21.2596 16.966C20.8689 17.2658 20.5411 17.6396 20.2948 18.066C20.0486 18.4925 19.8888 18.9633 19.8245 19.4516C19.7602 19.9398 19.7927 20.4359 19.9202 20.9116C20.0477 21.3873 20.2676 21.8332 20.5673 22.2239C20.8671 22.6146 21.2409 22.9424 21.6674 23.1886Z" fill="#FFEA00"/>
  <path d="M5.32318 14.9209C5.20014 14.9209 5.07709 14.9092 4.95111 14.8828C3.93451 14.6777 3.27826 13.6904 3.48041 12.6768C3.74701 11.3525 4.22455 10.1104 4.90424 8.99121C5.57514 7.88672 6.42475 6.91992 7.43256 6.11719C8.43744 5.31738 9.57709 4.69629 10.8193 4.27441C12.0761 3.84961 13.4121 3.63281 14.7949 3.63281C15.829 3.63281 16.6699 4.47363 16.6699 5.50781C16.6699 6.54199 15.829 7.38281 14.7949 7.38281C10.8925 7.38281 7.89545 9.75 7.15717 13.415C6.97846 14.3057 6.19623 14.9209 5.32318 14.9209ZM14.9999 26.748C12.9052 26.748 10.8749 26.2119 9.12592 25.1924C7.42084 24.2021 5.98529 22.7549 4.96869 21.0088C4.44721 20.1123 4.75189 18.9668 5.64545 18.4453C6.54193 17.9238 7.68744 18.2285 8.20893 19.1221C9.64447 21.5859 12.1171 22.998 14.9999 22.998C15.8115 22.998 16.6083 22.8779 17.373 22.6406C18.3632 22.333 19.412 22.8867 19.7197 23.877C20.0273 24.8672 19.4736 25.916 18.4833 26.2236C17.3583 26.5723 16.1865 26.748 14.9999 26.748ZM23.6689 21.6211C23.3496 21.6211 23.0273 21.5391 22.7314 21.3691C21.8349 20.8506 21.5302 19.7021 22.0488 18.8057C22.705 17.6748 22.998 16.5 22.998 15C22.998 12.8643 22.166 10.8545 20.6542 9.3457C19.9218 8.61328 19.9218 7.42676 20.6542 6.69434C21.3867 5.96191 22.5732 5.96191 23.3056 6.69434C24.3837 7.77246 25.2304 9.0293 25.8222 10.4268C26.4345 11.877 26.7451 13.415 26.7451 15C26.7451 17.168 26.2822 18.9756 25.2919 20.6865C24.9462 21.2871 24.3163 21.6211 23.6689 21.6211Z" fill="#3D5AFE"/>
</svg>