<svg width="40" height="34" viewBox="0 0 40 34" fill="none" xmlns="http://www.w3.org/2000/svg">
  <path d="M39.9943 20.0781C39.9385 20.6677 39.4263 20.9625 38.9902 21.2305C38.5845 21.477 38.1789 21.729 37.7783 21.9755C37.1292 22.3721 36.4852 22.7688 35.8361 23.1654C35.0247 23.6639 34.2184 24.1623 33.4071 24.6555C32.5146 25.2022 31.6221 25.7542 30.7245 26.3009C29.827 26.853 28.9294 27.4051 28.0268 27.9571C27.2002 28.4663 26.3787 28.9702 25.5521 29.4793C24.8777 29.8921 24.2083 30.3048 23.5339 30.7175C23.0927 30.9855 22.6515 31.2588 22.2103 31.5268C21.8757 31.7305 21.5613 31.9342 21.1809 32.0521C20.1921 32.3522 19.0968 32.2504 18.2043 31.7037C17.8848 31.5054 17.5602 31.3124 17.2408 31.1141C16.6525 30.755 16.0694 30.4012 15.4811 30.0421C14.7104 29.5705 13.9396 29.0988 13.1688 28.6325C12.2915 28.0965 11.4091 27.5605 10.5319 27.0245C9.62416 26.4725 8.71646 25.915 7.80875 25.363C6.95175 24.8377 6.09476 24.3178 5.23269 23.7925L3.04203 22.4579C2.51972 22.1363 1.99233 21.8201 1.47002 21.4985C1.23169 21.3538 0.993349 21.2091 0.755013 21.059C0.37976 20.8285 0.00957845 20.464 0.00957845 19.9709C0.00957845 20.4211 0.00957852 20.8714 0.00450754 21.327C0.00450754 21.4878 -0.00563443 21.6539 0.00450754 21.8201C0.0349334 22.2542 0.359477 22.5919 0.699233 22.8063C0.907143 22.9403 1.12012 23.0636 1.33311 23.1922C1.88077 23.5245 2.42844 23.8622 2.9761 24.1945C3.76718 24.6769 4.55318 25.1593 5.34425 25.6417C6.28238 26.2152 7.22559 26.7887 8.16372 27.3622C9.14242 27.9625 10.1211 28.5574 11.1049 29.1578C12.038 29.7259 12.9659 30.294 13.899 30.8622C14.6749 31.3339 15.4457 31.8055 16.2215 32.2772C16.7438 32.5988 17.2712 32.915 17.7935 33.2366C18.0978 33.4189 18.397 33.6279 18.7266 33.7565C19.756 34.1532 20.9629 34.0674 21.9112 33.4832C22.2712 33.2634 22.6312 33.0383 22.9913 32.8185C23.6556 32.4112 24.3199 32.0038 24.9791 31.5965C25.8462 31.0659 26.7083 30.5352 27.5754 29.9993C28.544 29.4043 29.5126 28.8094 30.476 28.2144L33.3817 26.4296C34.2489 25.8936 35.116 25.363 35.9882 24.827C36.6626 24.4143 37.3371 24.0015 38.0115 23.5835C38.3817 23.353 38.757 23.1279 39.1271 22.8974C39.2387 22.8277 39.3553 22.7581 39.4618 22.6777C39.7458 22.4525 39.9689 22.1417 39.974 21.7504C39.9791 21.5521 39.974 21.3591 39.974 21.1608C39.974 20.7695 39.974 20.3729 39.9791 19.9816C39.9994 20.0245 39.9943 20.0513 39.9943 20.0781C39.9943 20.0942 39.9943 20.0674 39.9943 20.0781Z" fill="#7A9EFD"/>
  <path d="M39.2742 18.9257C40.2377 19.5153 40.2428 20.4747 39.2844 21.0643L21.8199 31.7894C20.8615 32.379 19.2946 32.379 18.3311 31.7894L0.749966 21.0643C-0.213521 20.4747 -0.218592 19.5153 0.739823 18.9257L18.2043 8.20061C19.1627 7.61103 20.7296 7.61103 21.6931 8.20061L39.2742 18.9257Z" fill="#E4ECF9"/>
  <path d="M24.9334 0.0482386C24.9284 0.0482386 24.9284 0.0482386 24.9334 0.0482386C24.9182 0.0375188 24.9081 0.0321593 24.8929 0.0267994H24.8878C24.8827 0.0267994 24.8777 0.0214392 24.8777 0.0214392C24.8726 0.0214392 24.8675 0.0160798 24.8574 0.0160798C24.8523 0.0160798 24.8422 0.0107196 24.8371 0.0107196C24.832 0.0107196 24.827 0.0107201 24.827 0.00536021H24.8219C24.8067 0.00536021 24.7965 0 24.7813 0H24.685C24.6799 0 24.6748 3.27061e-07 24.6697 0.00536021C24.6596 0.00536021 24.6495 0.0107196 24.6393 0.0107196C24.6343 0.0107196 24.6292 0.0107199 24.6241 0.0160798C24.619 0.0160798 24.614 0.0214392 24.6089 0.0214392C24.5937 0.0267991 24.5785 0.0321591 24.5582 0.037519C24.5531 0.037519 24.548 0.0428792 24.543 0.0428792C24.5379 0.0428792 24.5379 0.0482386 24.5328 0.0482386C24.5024 0.0589583 24.4771 0.0750381 24.4466 0.0911178L8.91927 9.57274C8.88378 9.59418 8.84828 9.62098 8.81278 9.64778C8.80771 9.65314 8.80264 9.6585 8.7925 9.66386C8.76207 9.69066 8.72658 9.72282 8.69615 9.75498C8.69108 9.75498 8.69108 9.76034 8.68601 9.76034L8.67079 9.77642C8.65558 9.7925 8.64037 9.80858 8.62516 9.83002L8.60994 9.8461C8.60487 9.85146 8.5998 9.85682 8.5998 9.86218C8.58966 9.8729 8.57952 9.88362 8.57445 9.89434C8.56937 9.8997 8.5643 9.91042 8.55923 9.91578C8.55416 9.92114 8.54909 9.93186 8.54402 9.93722C8.53895 9.94794 8.52881 9.95329 8.52374 9.96402L8.50852 9.9801C8.50345 9.99082 8.49331 10.0015 8.48824 10.0123C8.48317 10.0176 8.4781 10.0283 8.47303 10.0337C8.47303 10.0391 8.46795 10.0391 8.46795 10.0444C8.45781 10.0659 8.4426 10.0873 8.43246 10.1087V10.1141C8.43246 10.1195 8.42739 10.1248 8.42739 10.1248C8.41725 10.1409 8.41217 10.157 8.40203 10.1677C8.39696 10.1731 8.39696 10.1838 8.39189 10.1891C8.38682 10.1945 8.38682 10.2052 8.38175 10.2106C8.37668 10.2159 8.37668 10.2213 8.37161 10.232C8.36654 10.2481 8.35639 10.2642 8.35132 10.2802C8.35132 10.2856 8.34625 10.2856 8.34625 10.291V10.2963C8.33611 10.3178 8.33104 10.3392 8.3209 10.3606C8.3209 10.366 8.3209 10.366 8.31583 10.3714C8.31075 10.3767 8.31076 10.3874 8.30568 10.3928C8.30061 10.4035 8.29554 10.4142 8.29554 10.425C8.29047 10.4357 8.29047 10.441 8.29047 10.4518C8.2854 10.4625 8.2854 10.4732 8.28033 10.4839C8.28033 10.4893 8.27526 10.4946 8.27526 10.5054C8.27019 10.5161 8.27019 10.5268 8.27019 10.5375C8.26512 10.5482 8.26512 10.5643 8.26005 10.575C8.26005 10.5804 8.26005 10.5858 8.25497 10.5911C8.25497 10.6018 8.2499 10.6072 8.2499 10.6179C8.24483 10.6394 8.24483 10.6554 8.23976 10.6769C8.23976 10.6822 8.23976 10.6876 8.23469 10.693V10.709C8.22962 10.7519 8.22455 10.7948 8.22455 10.8377L8.25497 22.1363C8.25497 22.2489 8.27526 22.3453 8.31076 22.4257C8.34625 22.5061 8.39696 22.5651 8.45781 22.6026L9.20832 23.0636C9.08662 22.9885 9.00548 22.8277 9.00548 22.5972L8.9852 11.2879C8.9852 11.245 8.99027 11.2021 8.99534 11.1593C8.99534 11.1485 8.99534 11.1378 9.00041 11.1271C9.00548 11.1057 9.00548 11.0896 9.01055 11.0682C9.01055 11.0574 9.01562 11.0414 9.01562 11.0306C9.02069 11.0199 9.02069 11.0038 9.02576 10.9931C9.03083 10.977 9.03591 10.961 9.04098 10.9395C9.04605 10.9288 9.04605 10.9181 9.05112 10.9074C9.05619 10.8859 9.06126 10.8698 9.0714 10.8484C9.07647 10.843 9.07647 10.8323 9.08154 10.827L9.11197 10.7466C9.11197 10.7412 9.11704 10.7412 9.11704 10.7358C9.12718 10.7144 9.13733 10.6876 9.14747 10.6662C9.15254 10.6608 9.15254 10.6501 9.15761 10.6447C9.16775 10.6233 9.17789 10.6018 9.19311 10.5804C9.19311 10.575 9.19818 10.5697 9.19818 10.5697C9.21339 10.5429 9.2286 10.5214 9.24382 10.4946C9.24889 10.4893 9.25396 10.4786 9.25903 10.4732C9.26917 10.4571 9.27931 10.441 9.29453 10.4196C9.2996 10.4089 9.30974 10.4035 9.31481 10.3928C9.32495 10.3767 9.33509 10.366 9.34524 10.3499C9.35538 10.3392 9.36552 10.3285 9.37059 10.3178C9.38073 10.307 9.3858 10.2963 9.39595 10.2856C9.41116 10.2695 9.42637 10.2534 9.44158 10.232C9.44666 10.2213 9.4568 10.2159 9.46694 10.2052C9.49737 10.173 9.52779 10.1409 9.56329 10.1141C9.56836 10.1087 9.57343 10.1034 9.58357 10.098C9.61907 10.0712 9.65457 10.0444 9.69006 10.023L25.2123 0.552068C25.2428 0.535988 25.2681 0.519908 25.2986 0.509189C25.3087 0.503829 25.3188 0.503829 25.3239 0.498469L25.3695 0.482389C25.3797 0.477029 25.3898 0.477029 25.4 0.47167C25.4101 0.47167 25.4203 0.466309 25.4304 0.466309C25.4405 0.466309 25.4558 0.46095 25.4659 0.46095H25.542C25.5572 0.46095 25.5775 0.466309 25.5927 0.466309C25.5977 0.466309 25.6028 0.46631 25.6028 0.47167C25.618 0.477029 25.6282 0.477029 25.6383 0.482389C25.6434 0.482389 25.6484 0.487749 25.6484 0.487749C25.6637 0.493109 25.6789 0.503829 25.6941 0.509189L24.9334 0.0482386Z" fill="#2A2ABC"/>
  <path d="M25.1921 0.562806C25.5724 0.332331 25.8817 0.519927 25.8817 0.975517L25.9122 12.2741C25.9122 12.7351 25.6028 13.2979 25.2276 13.5284L9.70531 22.9993C9.32499 23.2297 9.01566 23.0421 9.01566 22.5866L8.98523 11.2879C8.98523 10.827 9.29456 10.2642 9.66981 10.0337L25.1921 0.562806Z" fill="#4040FF"/>
  <path d="M12.9102 13.9517C13.7722 13.4265 14.472 13.8338 14.472 14.8629V14.9808C14.472 15.3882 13.7773 15.8277 12.9152 16.353L11.9112 16.964C11.0491 17.4893 10.3544 17.9127 10.3493 17.4946V17.3767C10.3443 16.3476 11.0441 15.088 11.9011 14.5628L12.9102 13.9517Z" fill="#2828CE"/>
  <path d="M10.542 17.8377C10.542 17.8913 10.5572 17.9341 10.5775 17.9609C10.5876 17.9717 10.5927 17.977 10.6028 17.9824L11.1505 18.3201C11.1099 18.2933 11.0846 18.245 11.0846 18.17V18.0521L10.5369 17.7144L10.542 17.8377Z" fill="#ACC5EA"/>
  <path d="M14.2185 14.1769C14.2134 14.1769 14.2134 14.1715 14.2084 14.1715C14.183 14.1554 14.1576 14.1447 14.1323 14.134C14.1272 14.134 14.1222 14.1286 14.1171 14.1286C14.1069 14.1233 14.1019 14.1233 14.0917 14.1179C14.0765 14.1126 14.0664 14.1072 14.0512 14.1018C14.0359 14.0965 14.0207 14.0965 14.0055 14.0911C13.9954 14.0911 13.9903 14.0858 13.9802 14.0858C13.9751 14.0858 13.97 14.0858 13.965 14.0804C13.9345 14.075 13.9041 14.0697 13.8686 14.0697H13.7672C13.757 14.0697 13.7469 14.0697 13.7418 14.075C13.7266 14.075 13.7114 14.0804 13.6962 14.0804C13.681 14.0804 13.6708 14.0804 13.6556 14.0858C13.6404 14.0858 13.6303 14.0911 13.6151 14.0965C13.5948 14.1018 13.5745 14.1072 13.5491 14.1126C13.539 14.1179 13.5288 14.1179 13.5136 14.1179C13.4883 14.1233 13.4579 14.134 13.4274 14.1447H13.4224C13.3919 14.1554 13.3564 14.1715 13.326 14.1822C13.3108 14.1876 13.3007 14.1929 13.2854 14.2037C13.2753 14.209 13.2601 14.2144 13.2499 14.2197C13.2043 14.2412 13.1536 14.268 13.1029 14.3001L12.0988 14.9112C12.0481 14.9433 11.9974 14.9755 11.9518 15.013C11.9366 15.0237 11.9213 15.0398 11.9061 15.0505C11.8706 15.0773 11.8402 15.0988 11.8098 15.1309C11.7895 15.147 11.7743 15.1631 11.754 15.1792C11.7236 15.206 11.6932 15.2328 11.6678 15.2596C11.6475 15.2756 11.6323 15.2971 11.612 15.3132C11.6019 15.3239 11.5867 15.3346 11.5765 15.3507L11.5461 15.3828C11.5106 15.4204 11.4751 15.4632 11.4396 15.5061L11.4041 15.5436C11.399 15.5544 11.3889 15.5597 11.3838 15.5704L11.323 15.6508C11.3078 15.6723 11.2925 15.6884 11.2773 15.7098C11.2672 15.7205 11.2621 15.7312 11.252 15.7473C11.2368 15.7688 11.2215 15.7902 11.2114 15.8116C11.2013 15.8277 11.1861 15.8438 11.1759 15.8652C11.1607 15.8867 11.1506 15.9028 11.1353 15.9242C11.1252 15.9403 11.1151 15.9617 11.0998 15.9778C11.0948 15.9885 11.0897 15.9992 11.0796 16.0046C11.0542 16.0475 11.0289 16.0957 11.0035 16.1386V16.1439C10.9781 16.1868 10.9528 16.2351 10.9325 16.2833C10.9274 16.294 10.9224 16.3047 10.9173 16.3208C10.9071 16.3369 10.9021 16.353 10.897 16.3691C10.8869 16.3851 10.8767 16.4066 10.8717 16.4227C10.8564 16.4495 10.8463 16.4816 10.8311 16.5138C10.826 16.5245 10.8209 16.5406 10.8159 16.5513C10.8159 16.5567 10.8108 16.562 10.8108 16.5674C10.7905 16.6156 10.7702 16.6639 10.755 16.7121C10.755 16.7175 10.7499 16.7228 10.7499 16.7282L10.7347 16.7764C10.7246 16.8032 10.7145 16.8354 10.7043 16.8622L10.6891 16.9104C10.684 16.9318 10.6739 16.9533 10.6688 16.9747L10.6536 17.023C10.6485 17.0444 10.6435 17.0658 10.6384 17.0926C10.6333 17.1194 10.6232 17.1462 10.6181 17.173C10.6181 17.1838 10.613 17.1945 10.608 17.2052C10.6029 17.2266 10.6029 17.2427 10.5978 17.2642C10.5927 17.307 10.5826 17.3446 10.5775 17.3874C10.5775 17.3982 10.5725 17.4142 10.5725 17.425C10.5674 17.4518 10.5674 17.4786 10.5674 17.5C10.5674 17.5214 10.5623 17.5375 10.5623 17.559C10.5573 17.6179 10.5573 17.6769 10.5573 17.7358L11.1049 18.0735C11.1049 18.0145 11.11 17.9556 11.11 17.8966C11.11 17.8752 11.1151 17.8591 11.1151 17.8377C11.1201 17.8001 11.1252 17.7626 11.1303 17.7197C11.1353 17.6769 11.1404 17.6394 11.1506 17.5965C11.1556 17.5643 11.1607 17.5322 11.1658 17.5054C11.1708 17.4786 11.1759 17.4518 11.1861 17.425C11.1962 17.3874 11.2063 17.3446 11.2165 17.307C11.2215 17.2856 11.2266 17.2642 11.2368 17.2427C11.252 17.1998 11.2672 17.1516 11.2824 17.1087L11.2976 17.0605C11.3179 17.0015 11.3433 16.9426 11.3686 16.8836C11.3737 16.8729 11.3787 16.8568 11.3838 16.8461C11.4041 16.7978 11.4244 16.7496 11.4497 16.7014C11.4548 16.6853 11.465 16.6692 11.47 16.6531C11.5005 16.5942 11.5258 16.5352 11.5613 16.4816V16.4763C11.5917 16.4227 11.6222 16.3637 11.6577 16.3101C11.6678 16.294 11.6779 16.2726 11.6932 16.2565L11.7692 16.1439L11.8149 16.0796C11.8351 16.0475 11.8605 16.0153 11.8858 15.9885L11.9467 15.9081C11.967 15.8867 11.9822 15.8652 12.0025 15.8438C12.038 15.8009 12.0735 15.7634 12.109 15.7205L12.1749 15.6508C12.1952 15.6348 12.2104 15.6133 12.2307 15.5972C12.2611 15.5704 12.2865 15.5436 12.3169 15.5168C12.3372 15.5008 12.3524 15.4847 12.3727 15.4686C12.4031 15.4418 12.4386 15.415 12.469 15.3882C12.4842 15.3775 12.4994 15.3614 12.5147 15.3507C12.5654 15.3132 12.6161 15.281 12.6617 15.2488L13.6658 14.6378C13.7165 14.6057 13.7621 14.5842 13.8128 14.5574C13.823 14.5521 13.8382 14.5467 13.8483 14.5413C13.894 14.5199 13.9396 14.4985 13.9852 14.4824H13.9903C14.0309 14.4663 14.0714 14.4556 14.1069 14.4449C14.1272 14.4395 14.1526 14.4341 14.1729 14.4288C14.1982 14.4234 14.2286 14.4181 14.254 14.4127C14.2692 14.4127 14.2844 14.4073 14.2996 14.4073C14.3351 14.4073 14.3656 14.402 14.396 14.4073H14.4213C14.4619 14.4073 14.4974 14.4127 14.538 14.4234C14.5481 14.4234 14.5583 14.4288 14.5633 14.4288C14.5938 14.4341 14.6242 14.4449 14.6495 14.4556C14.6597 14.4609 14.6698 14.4609 14.6749 14.4663C14.7104 14.4824 14.7459 14.4985 14.7763 14.5199L14.2185 14.1769Z" fill="#ACC5EA"/>
  <path d="M12.2154 11.1914C12.8797 10.7841 13.4223 11.1003 13.4274 11.8989C13.4324 12.6976 12.8898 13.6677 12.2256 14.075C11.5613 14.4824 11.0187 14.1662 11.0136 13.3675C11.0085 12.5689 11.546 11.5988 12.2154 11.1914Z" fill="#2828CE"/>
  <path d="M13.6455 14.6271C14.5075 14.1018 15.2073 14.5092 15.2073 15.5383V15.6562C15.2073 16.0635 14.5126 16.5031 13.6505 17.0283L12.6465 17.6394C11.7844 18.1646 11.0897 18.5881 11.0846 18.17V18.0521C11.0796 17.023 11.7793 15.7634 12.6363 15.2381L13.6455 14.6271Z" fill="white"/>
  <path d="M13.3311 11.4809C13.3666 11.4701 13.397 11.4594 13.4274 11.4541C13.4426 11.4487 13.4629 11.4487 13.4781 11.4433C13.4984 11.438 13.5187 11.438 13.5441 11.4326C13.5542 11.4326 13.5694 11.4273 13.5796 11.4273H13.6759C13.7063 11.4273 13.7368 11.4326 13.7672 11.438C13.7723 11.438 13.7824 11.4433 13.7875 11.4433C13.8128 11.4487 13.8331 11.4541 13.8534 11.4648C13.8585 11.4648 13.8686 11.4701 13.8737 11.4701C13.899 11.4809 13.9295 11.4969 13.9548 11.5077L13.4071 11.17C13.4071 11.17 13.4021 11.17 13.4021 11.1646L13.3412 11.1325C13.3361 11.1325 13.3311 11.1271 13.3311 11.1271C13.326 11.1217 13.3159 11.1217 13.3108 11.1217C13.3006 11.1164 13.2905 11.111 13.2804 11.111C13.2702 11.1057 13.255 11.1057 13.2449 11.1003C13.2398 11.1003 13.2297 11.0949 13.2246 11.0949H13.2144C13.1891 11.0896 13.1637 11.0896 13.1435 11.0842H13.042C13.0319 11.0842 13.0167 11.0842 13.0065 11.0896C12.9964 11.0896 12.9863 11.0896 12.9761 11.0949C12.966 11.0949 12.9558 11.1003 12.9457 11.1003C12.9305 11.1057 12.9102 11.1057 12.895 11.111C12.8848 11.111 12.8798 11.1164 12.8696 11.1164C12.8493 11.1217 12.829 11.1271 12.8037 11.1378H12.7986C12.7733 11.1485 12.7479 11.1539 12.7226 11.17L12.6921 11.1861L12.6617 11.2021C12.6262 11.2182 12.5856 11.2397 12.5501 11.2611C12.5096 11.2825 12.4741 11.3093 12.4335 11.3361C12.4234 11.3469 12.4082 11.3576 12.398 11.3629C12.3727 11.3844 12.3473 11.4005 12.322 11.4219C12.3067 11.4326 12.2915 11.4487 12.2814 11.4594C12.2611 11.4809 12.2357 11.5023 12.2155 11.5237C12.2002 11.5398 12.185 11.5505 12.1749 11.5666C12.1647 11.5773 12.1546 11.5827 12.1445 11.5934L12.1191 11.6202C12.0887 11.6524 12.0633 11.6845 12.038 11.7167C12.0278 11.7274 12.0177 11.7381 12.0126 11.7489C12.0076 11.7542 12.0025 11.7649 11.9974 11.7703C11.9822 11.7917 11.967 11.8078 11.9518 11.8293C11.9416 11.8453 11.9264 11.8561 11.9163 11.8721C11.9112 11.8829 11.9061 11.8882 11.896 11.8989C11.8858 11.915 11.8757 11.9311 11.8605 11.9472C11.8503 11.9632 11.8402 11.974 11.8301 11.9847L11.7996 12.0329C11.7895 12.049 11.7844 12.0597 11.7743 12.0758C11.7692 12.0812 11.7641 12.0919 11.7591 12.0972C11.7388 12.1294 11.7185 12.1669 11.6982 12.2044C11.6779 12.242 11.6627 12.2741 11.6424 12.3116C11.6374 12.3224 11.6323 12.3277 11.6272 12.3384C11.6222 12.3492 11.6171 12.3652 11.612 12.376C11.6069 12.392 11.5968 12.4028 11.5917 12.4188C11.5816 12.4403 11.5714 12.4671 11.5613 12.4885C11.5562 12.4992 11.5512 12.51 11.5512 12.5153C11.5512 12.5207 11.5461 12.5207 11.5461 12.526L11.5005 12.6386C11.5005 12.644 11.4954 12.6493 11.4954 12.6547C11.4903 12.6654 11.4852 12.6761 11.4852 12.6922C11.4751 12.7136 11.47 12.7351 11.4599 12.7619C11.4548 12.7726 11.4548 12.7887 11.4497 12.7994C11.4447 12.8155 11.4396 12.8315 11.4345 12.853C11.4295 12.8637 11.4244 12.8798 11.4244 12.8905C11.4193 12.9066 11.4142 12.928 11.4142 12.9441L11.399 13.0084C11.399 13.0191 11.394 13.0245 11.394 13.0352C11.3889 13.0513 11.3889 13.0674 11.3889 13.0835L11.3737 13.1799C11.3737 13.1907 11.3686 13.2014 11.3686 13.2121C11.3686 13.2335 11.3635 13.2496 11.3635 13.2711C11.3635 13.2871 11.3585 13.2979 11.3585 13.3139C11.3534 13.3622 11.3534 13.4051 11.3534 13.4533C11.3534 13.8446 11.4852 14.1179 11.6982 14.2519L12.2459 14.5896C12.0329 14.461 11.9011 14.1822 11.9011 13.791C11.9011 13.7481 11.9011 13.6999 11.9061 13.6516C11.9061 13.6355 11.9112 13.6248 11.9112 13.6087C11.9163 13.5766 11.9163 13.5498 11.9213 13.5176L11.9366 13.4211C11.9416 13.3997 11.9467 13.3729 11.9518 13.3515L11.967 13.2871C11.9721 13.255 11.9822 13.2282 11.9923 13.196C11.9974 13.1799 12.0025 13.1639 12.0076 13.1424C12.0177 13.1049 12.0278 13.0727 12.043 13.0352C12.0481 13.0245 12.0532 13.0138 12.0532 12.9977C12.0684 12.9495 12.0887 12.9066 12.1039 12.8583C12.109 12.8476 12.114 12.8369 12.114 12.8315C12.1293 12.794 12.1445 12.7565 12.1648 12.719C12.1698 12.7083 12.1749 12.6922 12.18 12.6815C12.2002 12.6386 12.2256 12.5904 12.251 12.5475L12.327 12.4188C12.3372 12.4028 12.3422 12.392 12.3524 12.376C12.3727 12.3492 12.3879 12.317 12.4082 12.2902C12.4183 12.2741 12.4284 12.258 12.4437 12.242C12.4589 12.2152 12.4792 12.1937 12.4994 12.1723C12.5146 12.1508 12.5299 12.1294 12.5451 12.1133C12.5603 12.0972 12.5755 12.0812 12.5856 12.0651C12.611 12.0329 12.6414 12.0008 12.6668 11.9686L12.7175 11.915L12.7581 11.8721C12.7783 11.8507 12.8037 11.8293 12.824 11.8078C12.8392 11.7971 12.8544 11.781 12.8645 11.7703C12.8899 11.7489 12.9153 11.7274 12.9406 11.7113C12.9508 11.7006 12.966 11.6899 12.9761 11.6845C13.0167 11.6577 13.0522 11.6309 13.0927 11.6095C13.1282 11.5881 13.1688 11.5666 13.2043 11.5505L13.2347 11.5345C13.2601 11.513 13.2956 11.4969 13.3311 11.4809Z" fill="#ACC5EA"/>
  <path d="M13.0826 11.6042C13.7469 11.1968 14.2895 11.513 14.2946 12.3117C14.2946 13.1103 13.757 14.0804 13.0927 14.4878C12.4284 14.8951 11.8858 14.5789 11.8808 13.7803C11.8757 12.9816 12.4183 12.0115 13.0826 11.6042Z" fill="white"/>
  <path d="M23.6251 3.7948C23.8635 3.65009 24.0613 3.76801 24.0613 4.05744C24.0613 4.34687 23.8686 4.70598 23.6302 4.8507L16.7438 9.05285C16.5055 9.19756 16.3077 9.07965 16.3077 8.79021C16.3077 8.50078 16.5004 8.14167 16.7388 7.99695L23.6251 3.7948ZM23.5288 7.17153C23.7671 7.02681 23.9649 7.14473 23.9649 7.43416C23.9649 7.7236 23.7722 8.08271 23.5339 8.22742L16.6424 12.4296C16.4041 12.5743 16.2063 12.4564 16.2063 12.1669C16.2063 11.8775 16.399 11.5184 16.6373 11.3737L23.5288 7.17153Z" fill="#2828CE"/>
  <path d="M24.0663 4.14318C24.0612 4.14318 24.0612 4.14318 24.0663 4.14318C24.0562 4.13782 24.0511 4.13246 24.041 4.13246H24.0359C24.0359 4.13246 24.0308 4.13246 24.0308 4.1271C24.0257 4.1271 24.0257 4.12174 24.0207 4.12174C24.0156 4.12174 24.0105 4.12174 24.0105 4.11638H24.0004H23.9953C23.9852 4.11638 23.9801 4.11638 23.97 4.11102H23.9446H23.904C23.899 4.11102 23.8939 4.11102 23.8888 4.11638H23.8787C23.8736 4.11638 23.8736 4.11638 23.8685 4.12174C23.8584 4.1271 23.8483 4.1271 23.8381 4.13246C23.8331 4.13246 23.833 4.13246 23.828 4.13782C23.828 4.13782 23.8229 4.13782 23.8229 4.14318C23.8026 4.1539 23.7874 4.15926 23.7671 4.16998L16.8807 8.37213C16.8554 8.38821 16.825 8.40964 16.7996 8.43108C16.7895 8.43644 16.7844 8.44717 16.7742 8.45252C16.7641 8.46324 16.7489 8.47396 16.7387 8.49004C16.7337 8.4954 16.7286 8.50076 16.7235 8.51148L16.7083 8.52756L16.6931 8.54364C16.683 8.55972 16.6677 8.5758 16.6576 8.59188C16.6525 8.59724 16.6475 8.6026 16.6475 8.60796C16.6475 8.61332 16.6424 8.61332 16.6424 8.61868C16.6373 8.62404 16.6373 8.6294 16.6323 8.63476C16.6221 8.64548 16.617 8.66156 16.6069 8.67228C16.5968 8.683 16.5917 8.69908 16.5866 8.7098V8.72052L16.5714 8.75268C16.5663 8.7634 16.5562 8.77948 16.5511 8.7902C16.546 8.80092 16.541 8.81164 16.5359 8.82772C16.5308 8.8438 16.5258 8.85452 16.5207 8.87059C16.5156 8.88667 16.5105 8.89739 16.5055 8.91347C16.5055 8.91883 16.5004 8.92955 16.5004 8.93491C16.5004 8.94027 16.5004 8.94027 16.4953 8.94563C16.4953 8.95099 16.4903 8.95635 16.4903 8.96171C16.4852 8.97779 16.4801 8.99923 16.4801 9.01531C16.4801 9.02603 16.4751 9.03675 16.4751 9.04747C16.4751 9.05283 16.4751 9.05819 16.47 9.06355C16.47 9.06891 16.47 9.07427 16.4649 9.07963C16.4598 9.11179 16.4598 9.13859 16.4598 9.17075C16.4598 9.24043 16.47 9.30474 16.4953 9.35298C16.5156 9.40122 16.5511 9.43874 16.5866 9.46554L17.1343 9.80321C17.0582 9.75497 17.0075 9.65314 17.0075 9.50842C17.0075 9.47626 17.0126 9.43874 17.0176 9.40122C17.0176 9.39586 17.0176 9.3905 17.0227 9.38514C17.0278 9.35298 17.0329 9.32083 17.043 9.28331C17.043 9.27795 17.043 9.27795 17.0481 9.27259C17.0582 9.23507 17.0734 9.19755 17.0836 9.16539C17.0988 9.12787 17.114 9.09035 17.1343 9.05819V9.05283L17.1951 8.95635C17.1951 8.95099 17.2002 8.95099 17.2002 8.94563C17.2205 8.91883 17.2408 8.89203 17.2661 8.86523L17.2813 8.84916C17.2966 8.82772 17.3168 8.81164 17.3371 8.79556C17.3473 8.7902 17.3523 8.77948 17.3625 8.77412C17.3878 8.75268 17.4183 8.73124 17.4436 8.71516L24.2996 4.51301C24.3199 4.50229 24.3351 4.49157 24.3554 4.48621C24.3604 4.48621 24.3655 4.48085 24.3706 4.48085C24.3807 4.47549 24.3909 4.47549 24.401 4.47013C24.4061 4.47013 24.4162 4.46477 24.4213 4.46477C24.4264 4.46477 24.4314 4.45942 24.4365 4.45942C24.4466 4.45942 24.4517 4.45405 24.4619 4.45405H24.5126C24.5227 4.45405 24.5328 4.45406 24.543 4.45942H24.5531C24.5633 4.45942 24.5683 4.46477 24.5785 4.46477C24.5785 4.46477 24.5836 4.46477 24.5836 4.47013L24.614 4.48621L24.0663 4.14318Z" fill="#ACC5EA"/>
  <path d="M24.2996 4.51304C24.5379 4.36832 24.7357 4.48624 24.7357 4.77567C24.7357 5.0651 24.543 5.42421 24.3047 5.56893L17.4183 9.77107C17.1799 9.91579 16.9822 9.79787 16.9822 9.50844C16.9822 9.21901 17.1749 8.8599 17.4132 8.71518L24.2996 4.51304Z" fill="white"/>
  <path d="M24.0663 7.43951C24.0612 7.43415 24.0612 7.43951 24.0663 7.43951C24.0562 7.43415 24.0511 7.42879 24.041 7.42879H24.0359C24.0359 7.42879 24.0308 7.42879 24.0308 7.42343C24.0257 7.42343 24.0257 7.41807 24.0207 7.41807C24.0156 7.41807 24.0105 7.41807 24.0105 7.41271H24.0004H23.9953C23.9852 7.41271 23.9801 7.41271 23.97 7.40735H23.9446H23.904C23.899 7.40735 23.8939 7.40735 23.8888 7.41271H23.8787C23.8736 7.41271 23.8736 7.41271 23.8685 7.41807C23.8584 7.42343 23.8483 7.42343 23.8381 7.42879C23.8331 7.42879 23.833 7.42879 23.828 7.43415C23.828 7.43415 23.8229 7.43415 23.8229 7.43951C23.8026 7.45023 23.7874 7.45559 23.7671 7.46631L16.8807 11.6685C16.8554 11.6845 16.825 11.706 16.7996 11.7274C16.7895 11.7328 16.7844 11.7435 16.7742 11.7489C16.7641 11.7596 16.7489 11.7703 16.7387 11.7864C16.7337 11.7917 16.7286 11.7971 16.7235 11.8078L16.7083 11.8239L16.6931 11.84C16.683 11.856 16.6677 11.8721 16.6576 11.8882C16.6525 11.8936 16.6475 11.8989 16.6475 11.9043C16.6475 11.9096 16.6424 11.9096 16.6424 11.915C16.6373 11.9204 16.6373 11.9257 16.6323 11.9311C16.6221 11.9418 16.617 11.9579 16.6069 11.9686C16.5968 11.9793 16.5917 11.9954 16.5866 12.0061V12.0168L16.5714 12.049C16.5663 12.0597 16.5562 12.0758 16.5511 12.0865C16.546 12.0972 16.541 12.108 16.5359 12.124V12.1294C16.5308 12.1455 16.5258 12.1562 16.5207 12.1723C16.5156 12.1884 16.5105 12.1991 16.5055 12.2152C16.5055 12.2205 16.5004 12.2312 16.5004 12.2366C16.5004 12.242 16.5004 12.242 16.4953 12.2473C16.4953 12.2527 16.4903 12.258 16.4903 12.2634C16.4852 12.2795 16.4801 12.3009 16.4801 12.317C16.4801 12.3277 16.4751 12.3384 16.4751 12.3492C16.4751 12.3545 16.4751 12.3599 16.47 12.3652C16.47 12.3706 16.47 12.376 16.4649 12.3813C16.4598 12.4135 16.4598 12.4403 16.4598 12.4724C16.4598 12.6172 16.5105 12.719 16.5866 12.7672L17.1343 13.1049C17.0582 13.0567 17.0075 12.9548 17.0075 12.8101C17.0075 12.7779 17.0126 12.7404 17.0176 12.7029C17.0176 12.6975 17.0176 12.6922 17.0227 12.6868C17.0278 12.6547 17.0329 12.6225 17.043 12.585C17.043 12.5796 17.043 12.5796 17.0481 12.5743C17.0582 12.5368 17.0734 12.4992 17.0836 12.4671C17.0988 12.4296 17.114 12.3974 17.1343 12.3599V12.3545L17.1951 12.258C17.1951 12.2527 17.2002 12.2527 17.2002 12.2473C17.2205 12.2205 17.2408 12.1937 17.2661 12.1669L17.2813 12.1508C17.2966 12.1294 17.3168 12.1133 17.3371 12.0972C17.3473 12.0919 17.3523 12.0812 17.3625 12.0758C17.3878 12.0544 17.4183 12.0329 17.4436 12.0168L24.2996 7.80398C24.3199 7.79326 24.3351 7.78254 24.3554 7.77718C24.3604 7.77718 24.3655 7.77182 24.3706 7.77182C24.3807 7.76646 24.3909 7.76646 24.401 7.7611C24.4061 7.7611 24.4162 7.75574 24.4213 7.75574C24.4264 7.75574 24.4314 7.75038 24.4416 7.75038C24.4517 7.75038 24.4568 7.74502 24.4669 7.74502H24.5176C24.5278 7.74502 24.5379 7.74502 24.5481 7.75038H24.5582C24.5683 7.75038 24.5734 7.75574 24.5836 7.75574C24.5836 7.75574 24.5886 7.75574 24.5886 7.7611L24.6191 7.77718L24.0663 7.43951Z" fill="#ACC5EA"/>
  <path d="M24.2996 7.80396C24.5379 7.65924 24.7357 7.77716 24.7357 8.06659C24.7357 8.35603 24.543 8.71514 24.3047 8.85985L17.4183 13.062C17.1799 13.2067 16.9822 13.0888 16.9822 12.7994C16.9822 12.5099 17.1749 12.1508 17.4132 12.0061L24.2996 7.80396Z" fill="white"/>
  <path d="M20.5014 12.4242C20.7398 12.2795 20.9375 12.3974 20.9375 12.6868C20.9375 12.9763 20.7448 13.3354 20.5065 13.4801L16.6424 15.8384C16.4041 15.9832 16.2063 15.8652 16.2063 15.5758C16.2063 15.2864 16.399 14.9273 16.6373 14.7825L20.5014 12.4242Z" fill="#2828CE"/>
  <path d="M21.6119 12.9602L21.0643 12.6225C21.0592 12.6172 21.0491 12.6172 21.044 12.6118H21.0389C21.0389 12.6118 21.0338 12.6118 21.0338 12.6064C21.0288 12.6064 21.0288 12.6011 21.0237 12.6011C21.0186 12.6011 21.0136 12.6011 21.0136 12.5957H21.0034H20.9984C20.9882 12.5957 20.9831 12.5957 20.973 12.5904H20.9476H20.9071C20.902 12.5904 20.8969 12.5904 20.8868 12.5957H20.8766C20.8716 12.5957 20.8716 12.5957 20.8665 12.6011C20.8564 12.6064 20.8462 12.6064 20.8361 12.6118C20.831 12.6118 20.831 12.6118 20.8259 12.6172C20.8259 12.6172 20.8209 12.6172 20.8209 12.6225C20.8006 12.6332 20.7854 12.6386 20.7651 12.6493L16.901 15.0077L17.4487 15.3453L21.3127 12.987C21.333 12.9763 21.3482 12.9656 21.3685 12.9602C21.3736 12.9602 21.3787 12.9548 21.3837 12.9548C21.3939 12.9495 21.404 12.9495 21.4142 12.9441C21.4192 12.9441 21.4294 12.9388 21.4345 12.9388C21.4395 12.9388 21.4446 12.9334 21.4547 12.9334C21.4649 12.9334 21.47 12.928 21.4801 12.928H21.5308C21.5409 12.928 21.5511 12.928 21.5612 12.9334H21.5714C21.5815 12.9334 21.5866 12.9388 21.5967 12.9388C21.5967 12.9388 21.6018 12.9388 21.6018 12.9441C21.5967 12.9495 21.6069 12.9548 21.6119 12.9602ZM16.8148 15.0773C16.8046 15.0827 16.7996 15.0934 16.7894 15.0988C16.7742 15.1095 16.7641 15.1202 16.7539 15.1363C16.7489 15.1417 16.7438 15.147 16.7387 15.1577L16.7235 15.1738L16.7083 15.1899C16.6982 15.206 16.6829 15.2221 16.6728 15.2328C16.6677 15.2381 16.6627 15.2435 16.6627 15.2489C16.6627 15.2542 16.6576 15.2542 16.6576 15.2596C16.6525 15.2649 16.6525 15.2703 16.6474 15.2757C16.6373 15.2864 16.6322 15.3025 16.6221 15.3132C16.6119 15.3239 16.6069 15.34 16.6018 15.3507V15.3614L16.5866 15.3936C16.5815 15.4043 16.5714 15.4204 16.5663 15.4311C16.5612 15.4418 16.5562 15.4525 16.5511 15.4686C16.546 15.4847 16.541 15.4954 16.5359 15.5115C16.5308 15.5276 16.5257 15.5383 16.5207 15.5544C16.5207 15.5597 16.5156 15.5705 16.5156 15.5758C16.5156 15.5812 16.5156 15.5812 16.5105 15.5865C16.5105 15.5919 16.5055 15.5973 16.5055 15.6026C16.5004 15.6187 16.4953 15.6401 16.4953 15.6562C16.4953 15.6669 16.4902 15.6777 16.4902 15.6884C16.4902 15.6937 16.4902 15.6991 16.4852 15.7045V15.7205C16.4801 15.7527 16.4801 15.7795 16.4801 15.8116C16.4801 15.9564 16.5308 16.0582 16.6069 16.1064L17.1545 16.4441C17.0785 16.3959 17.0278 16.294 17.0278 16.1493C17.0278 16.1172 17.0328 16.0796 17.0379 16.0421C17.0379 16.0368 17.0379 16.0314 17.043 16.026C17.0481 15.9939 17.0531 15.9617 17.0633 15.9242C17.0633 15.9188 17.0633 15.9188 17.0683 15.9135C17.0785 15.876 17.0937 15.8384 17.1038 15.8063C17.119 15.7688 17.1343 15.7313 17.1545 15.6991V15.6937L17.2154 15.5973C17.2154 15.5919 17.2205 15.5919 17.2205 15.5865C17.2408 15.5597 17.261 15.5329 17.2864 15.5061L17.3016 15.4901C17.3168 15.4686 17.3371 15.4525 17.3574 15.4365C17.3675 15.4311 17.3726 15.4204 17.3827 15.415C17.4081 15.3936 17.4385 15.3721 17.4639 15.3561L16.9162 15.0184C16.8655 15.0345 16.8401 15.0505 16.8148 15.0773Z" fill="#ACC5EA"/>
  <path d="M21.3026 12.9923C21.541 12.8476 21.7387 12.9655 21.7387 13.255C21.7387 13.5444 21.546 13.9035 21.3077 14.0482L17.4436 16.4066C17.2053 16.5513 17.0075 16.4334 17.0075 16.144C17.0075 15.8545 17.2002 15.4954 17.4385 15.3507L21.3026 12.9923Z" fill="white"/>
  <path d="M32.1546 13.9571L31.4041 13.4962C31.4091 13.4962 31.4142 13.5015 31.4243 13.5015L32.1748 13.9625C32.1647 13.9625 32.1596 13.9571 32.1546 13.9571Z" fill="#A8871E"/>
  <path d="M32.1698 13.9625L31.4193 13.5015L31.4497 13.5176L32.2002 13.9786L32.1698 13.9625Z" fill="#A3831D"/>
  <path d="M32.2002 13.9786L31.4497 13.5176H31.4548L32.2002 13.9786Z" fill="#9E7F1D"/>
  <path d="M26.5004 22.4793L25.7499 22.0184C25.7296 21.9916 25.7093 21.9755 25.684 21.9594L26.4345 22.4204C26.4598 22.4364 26.4801 22.4579 26.5004 22.4793Z" fill="#856B18"/>
  <path d="M31.1961 13.3782L30.4456 12.9173L31.404 13.4962L32.1545 13.9571L31.1961 13.3782Z" fill="#9E7F1D"/>
  <path d="M30.2377 10.8216C30.2276 10.8162 30.2174 10.8109 30.2123 10.8109C30.2073 10.8055 30.2022 10.8055 30.1921 10.8001C30.187 10.8001 30.187 10.7948 30.1819 10.7948C30.1768 10.7948 30.1768 10.7948 30.1718 10.7894C30.1616 10.7841 30.1515 10.7841 30.1363 10.7787H30.1312C30.116 10.7787 30.1059 10.7733 30.0906 10.7733H29.9892C29.9791 10.7733 29.9689 10.7787 29.9639 10.7787C29.9537 10.7787 29.9436 10.7841 29.9334 10.7841H29.9284C29.9233 10.7841 29.9132 10.7894 29.9081 10.7894C29.8878 10.7948 29.8726 10.8001 29.8523 10.8109C29.8472 10.8109 29.8422 10.8162 29.8371 10.8162C29.8269 10.8216 29.8168 10.8216 29.8117 10.8269C29.8067 10.8323 29.7965 10.8323 29.7915 10.8377C29.7661 10.8484 29.7458 10.8645 29.7205 10.8752L28.7063 11.4916C28.6758 11.513 28.6403 11.5291 28.6099 11.5452C28.6048 11.5452 28.6048 11.5505 28.5998 11.5505C28.5795 11.5612 28.5541 11.5666 28.5338 11.572C28.5237 11.5773 28.5136 11.5773 28.5034 11.5773C28.4984 11.5773 28.4882 11.5827 28.4831 11.5827C28.4679 11.588 28.4527 11.588 28.4375 11.588H28.3817C28.3665 11.588 28.3564 11.5827 28.3412 11.5773H28.3361C28.3209 11.572 28.3107 11.5666 28.2955 11.5559L29.046 12.0168H29.0511C29.0612 12.0222 29.0663 12.0276 29.0764 12.0276C29.0815 12.0276 29.0866 12.0329 29.0866 12.0329H29.0967C29.1069 12.0383 29.117 12.0383 29.1221 12.0383H29.188C29.2032 12.0383 29.2134 12.0383 29.2286 12.0329H29.2336C29.2387 12.0329 29.2489 12.0276 29.2539 12.0276C29.2641 12.0276 29.2691 12.0222 29.2793 12.0222H29.2844C29.3046 12.0168 29.3249 12.0061 29.3503 12.0008H29.3553C29.3553 12.0008 29.3604 12.0008 29.3604 11.9954C29.3908 11.9793 29.4263 11.9632 29.4568 11.9418L30.471 11.3254C30.4963 11.3093 30.5166 11.2986 30.542 11.2879C30.547 11.2825 30.5572 11.2825 30.5622 11.2772C30.5775 11.2718 30.5876 11.2665 30.6028 11.2611C30.6231 11.2557 30.6434 11.245 30.6586 11.2397C30.6687 11.2343 30.6789 11.2343 30.6839 11.2289C30.6941 11.2236 30.7042 11.2236 30.7144 11.2236C30.7245 11.2182 30.7397 11.2182 30.7499 11.2182H30.8259C30.8462 11.2182 30.8614 11.2182 30.8766 11.2236H30.8817C30.8969 11.2289 30.9121 11.2289 30.9274 11.2343C30.9324 11.2343 30.9324 11.2343 30.9375 11.2397C30.9527 11.245 30.9679 11.2557 30.9831 11.2611L30.2377 10.8216ZM24.2945 22.6669L24.2894 21.4341C24.2894 21.2198 24.1728 21.075 24.0562 21.0054L23.3057 20.5444C23.4223 20.6194 23.5389 20.7588 23.5389 20.9732L23.544 22.206C23.544 22.3614 23.5744 22.49 23.6251 22.5812C23.6556 22.6348 23.6961 22.6776 23.7418 22.7044L24.4923 23.1654C24.3655 23.0903 24.2945 22.9188 24.2945 22.6669Z" fill="#C68620"/>
  <path d="M27.758 11.5773C27.9355 11.4701 28.1181 11.4487 28.2651 11.5398L28.9852 11.974C29.1069 12.1187 29.2844 12.0812 29.4619 11.974L30.4761 11.3576C30.8919 11.1003 31.1911 11.2825 31.1961 11.7917L31.2012 13.3836L32.1596 13.9625C32.4588 14.0697 32.4588 14.6485 32.1039 15.2274L31.3888 16.5352C31.2114 16.7871 31.1505 17.0444 31.1505 17.2588L31.1556 18.4916C31.1556 19.0008 30.8615 19.5421 30.4406 19.7994L29.4264 20.4158C29.2489 20.523 29.0663 20.7803 28.9497 20.9946L28.2347 22.2971C28.0876 22.5704 27.9101 22.7688 27.7276 22.876C27.5501 22.9832 27.3676 23.0046 27.2205 22.9135L26.5055 22.4793C26.3838 22.3346 26.2063 22.3721 26.0288 22.4793L25.0095 23.1011C24.5937 23.3584 24.2945 23.1761 24.2895 22.6669L24.2844 21.4342C24.2844 21.2144 24.1627 21.0697 24.0461 21L23.326 20.5659C23.0268 20.3836 23.0268 19.8798 23.3209 19.3331L24.0359 17.9556C24.2134 17.7037 24.2743 17.4464 24.2743 17.232L24.2692 15.9992C24.2692 15.49 24.5633 14.9487 24.9842 14.6914L25.9984 14.075C26.1759 13.9678 26.3584 13.7106 26.5359 13.4587L27.2509 12.1508C27.398 11.8882 27.5805 11.6899 27.758 11.5773Z" fill="#FFCD2E"/>
  <path d="M29.1627 14.0589L29.259 14.2733C28.2398 16.0743 27.4031 18.245 27.1444 19.2527L25.6029 18.2343L25.9933 17.6018L26.8858 17.9288C27.2459 17.1623 28.0521 15.5919 29.1627 14.0589ZM28.2296 11.513L27.5096 11.0789C27.4943 11.0681 27.4791 11.0628 27.4639 11.0574C27.4639 11.0574 27.4588 11.0574 27.4588 11.0521C27.4538 11.0521 27.4487 11.0467 27.4436 11.0467C27.4386 11.0413 27.4284 11.0413 27.4233 11.036C27.4183 11.036 27.4081 11.0306 27.4031 11.0306C27.398 11.0306 27.3929 11.0306 27.3878 11.0253H27.3777C27.3625 11.0199 27.3473 11.0199 27.3321 11.0199H27.2306C27.2256 11.0199 27.2205 11.0199 27.2154 11.0253C27.2053 11.0253 27.1951 11.0306 27.1901 11.0306C27.185 11.0306 27.1799 11.0306 27.1749 11.036C27.1698 11.036 27.1647 11.0413 27.1597 11.0413L27.114 11.0574C27.1089 11.0574 27.1039 11.0628 27.0988 11.0628C27.0937 11.0628 27.0937 11.0681 27.0887 11.0681C27.0633 11.0789 27.0329 11.0949 27.0075 11.111C26.9872 11.1217 26.967 11.1378 26.9467 11.1539C26.9416 11.1593 26.9315 11.1646 26.9264 11.17C26.9112 11.1807 26.896 11.1914 26.8858 11.2021C26.8807 11.2075 26.8706 11.2129 26.8655 11.2236C26.8503 11.2343 26.8402 11.2504 26.825 11.2611L26.8047 11.2825C26.7996 11.2879 26.7945 11.2879 26.7945 11.2933C26.7895 11.2986 26.7844 11.304 26.7793 11.3147C26.7641 11.3308 26.7489 11.3469 26.7337 11.3683L26.7185 11.3844C26.7134 11.3897 26.7083 11.4004 26.7033 11.4058C26.6931 11.4165 26.683 11.4272 26.6728 11.4433C26.6678 11.4487 26.6627 11.454 26.6576 11.4648C26.6526 11.4755 26.6424 11.4808 26.6373 11.4916C26.6323 11.5023 26.6221 11.513 26.6171 11.5237C26.612 11.5291 26.612 11.5344 26.6069 11.5398C26.5968 11.5559 26.5866 11.572 26.5765 11.5827C26.5714 11.588 26.5663 11.5988 26.5613 11.6041L26.5562 11.6095C26.541 11.6363 26.5258 11.6631 26.5106 11.6845C26.5106 11.6899 26.5055 11.6899 26.5055 11.6952L25.7905 13.0031L25.6536 13.196C25.6384 13.2121 25.6282 13.2282 25.613 13.2496C25.6029 13.2603 25.5978 13.271 25.5876 13.2818C25.5724 13.3032 25.5522 13.3246 25.5369 13.3461L25.5217 13.3622L25.5167 13.3675C25.4913 13.3997 25.4609 13.4318 25.4355 13.4586L25.4102 13.4854C25.3899 13.5015 25.3747 13.523 25.3544 13.539C25.3442 13.5444 25.3392 13.5551 25.329 13.5605C25.3037 13.5819 25.2783 13.6034 25.253 13.6194L24.2388 14.2358C24.1931 14.2626 24.1526 14.2948 24.112 14.3269C24.1069 14.3323 24.1019 14.3323 24.0968 14.3377C24.0562 14.3698 24.0207 14.402 23.9852 14.4395L23.9751 14.4502C23.97 14.4556 23.97 14.4609 23.9649 14.4609C23.9497 14.477 23.9294 14.4985 23.9142 14.5199L23.899 14.536L23.8939 14.5413C23.8889 14.5521 23.8787 14.5628 23.8737 14.5681C23.8635 14.5789 23.8534 14.5896 23.8483 14.6003C23.8432 14.6057 23.8432 14.611 23.8382 14.611C23.8331 14.6164 23.828 14.6271 23.8229 14.6325C23.8179 14.6432 23.8128 14.6485 23.8027 14.6593C23.7976 14.67 23.7925 14.6753 23.7875 14.6861C23.7824 14.6914 23.7773 14.7021 23.7722 14.7075C23.7672 14.7129 23.7672 14.7182 23.7621 14.7182C23.752 14.7397 23.7418 14.7557 23.7266 14.7772V14.7825C23.7266 14.7879 23.7215 14.7879 23.7215 14.7933C23.7114 14.8093 23.7063 14.8201 23.7012 14.8361C23.6962 14.8469 23.6911 14.8522 23.6911 14.8629C23.686 14.8683 23.686 14.8737 23.681 14.8844C23.681 14.8897 23.6759 14.8951 23.6759 14.9004C23.6657 14.9219 23.6556 14.938 23.6505 14.9594V14.9648C23.6505 14.9701 23.6455 14.9755 23.6455 14.9808C23.6404 14.9969 23.6353 15.013 23.6302 15.0237C23.6252 15.0291 23.6252 15.0398 23.6201 15.0505C23.615 15.0612 23.615 15.0666 23.61 15.0773C23.61 15.0827 23.6049 15.088 23.6049 15.0988L23.5897 15.147C23.5897 15.1524 23.5846 15.1631 23.5846 15.1684V15.1738C23.5795 15.1952 23.5745 15.2113 23.5694 15.2328C23.5694 15.2435 23.5643 15.2488 23.5643 15.2596V15.2649C23.5643 15.2703 23.5643 15.2756 23.5593 15.281C23.5542 15.3078 23.5491 15.34 23.544 15.3668V15.3936C23.539 15.4472 23.5339 15.4954 23.5339 15.549L23.539 16.7818C23.539 16.8246 23.5339 16.8675 23.5288 16.9158V16.9372C23.5288 16.9533 23.5238 16.9694 23.5187 16.9854C23.5187 17.0015 23.5136 17.0122 23.5085 17.0283C23.5085 17.0337 23.5035 17.0444 23.5035 17.0498L23.4883 17.1141C23.4883 17.1194 23.4832 17.1248 23.4832 17.1302C23.473 17.157 23.468 17.1838 23.4528 17.2106C23.4528 17.2159 23.4477 17.2159 23.4477 17.2213C23.4376 17.2481 23.4223 17.2749 23.4122 17.3017C23.4122 17.307 23.4071 17.307 23.4071 17.3124C23.3919 17.3392 23.3767 17.3714 23.3615 17.3982C23.3615 17.4035 23.3564 17.4035 23.3564 17.4089C23.3361 17.441 23.3209 17.4678 23.2956 17.5L22.5755 18.8775C22.5653 18.8989 22.5501 18.9257 22.54 18.9472C22.5349 18.9525 22.5349 18.9632 22.5298 18.9686C22.5248 18.9793 22.5197 18.9847 22.5146 18.9954C22.5096 19.0061 22.5045 19.0115 22.4994 19.0222C22.4943 19.0383 22.4893 19.049 22.4791 19.0651C22.4741 19.0704 22.4741 19.0812 22.469 19.0865C22.469 19.0919 22.4639 19.0919 22.4639 19.0972C22.4538 19.124 22.4436 19.1455 22.4335 19.1669V19.1723C22.4335 19.1776 22.4284 19.1884 22.4284 19.1937L22.4132 19.242C22.4132 19.2473 22.4081 19.258 22.4081 19.2634C22.4031 19.2741 22.4031 19.2848 22.398 19.2956C22.398 19.3063 22.3929 19.3116 22.3929 19.3223C22.3879 19.3331 22.3879 19.3438 22.3879 19.3491C22.3828 19.3599 22.3828 19.3759 22.3777 19.3867C22.3777 19.392 22.3726 19.3974 22.3726 19.4027C22.3726 19.4135 22.3676 19.4188 22.3676 19.4295C22.3625 19.4456 22.3625 19.4671 22.3574 19.4831C22.3574 19.4885 22.3574 19.4939 22.3524 19.4992V19.5207C22.3524 19.5421 22.3473 19.5635 22.3473 19.5796V19.7029C22.3473 19.7297 22.3524 19.7619 22.3574 19.7833V19.7887C22.3625 19.8155 22.3676 19.8369 22.3777 19.8583C22.3828 19.8637 22.3828 19.8744 22.3879 19.8798C22.3929 19.8959 22.4031 19.9119 22.4081 19.928C22.4132 19.9387 22.4183 19.9441 22.4234 19.9495C22.4335 19.9655 22.4386 19.9763 22.4487 19.987C22.4538 19.9923 22.4589 20.0031 22.4639 20.0084C22.4741 20.0191 22.4842 20.0352 22.4994 20.0459L22.5146 20.062C22.5349 20.0781 22.5501 20.0942 22.5704 20.1049L23.3209 20.5658C23.3006 20.5551 23.2803 20.539 23.2651 20.523L23.2499 20.5069L23.2144 20.4694C23.2094 20.464 23.2043 20.4533 23.1992 20.4479C23.1891 20.4372 23.184 20.4211 23.1739 20.4104C23.1688 20.405 23.1637 20.3943 23.1586 20.389C23.1536 20.3729 23.1434 20.3568 23.1384 20.3407C23.1333 20.3354 23.1333 20.3246 23.1282 20.3193C23.1232 20.2978 23.113 20.2764 23.1079 20.2496V20.2442C23.1029 20.2175 23.0978 20.1907 23.0978 20.1639V20.1371V20.0727V20.0406C23.0978 20.0191 23.0978 19.9977 23.1029 19.9816C23.1029 19.9709 23.1079 19.9548 23.1079 19.9441C23.1079 19.928 23.113 19.9066 23.1181 19.8905C23.1232 19.8744 23.1232 19.8637 23.1282 19.8476C23.1333 19.8369 23.1333 19.8208 23.1384 19.8101C23.1434 19.794 23.1485 19.7726 23.1536 19.7565C23.1586 19.7458 23.1586 19.7351 23.1637 19.7243C23.1688 19.7029 23.1789 19.6815 23.184 19.66C23.184 19.6547 23.1891 19.6493 23.1891 19.6386C23.1992 19.6118 23.2094 19.5796 23.2246 19.5528C23.2296 19.5475 23.2296 19.5367 23.2347 19.5314C23.2449 19.5099 23.255 19.4831 23.2651 19.4617C23.2702 19.451 23.2753 19.4456 23.2804 19.4349C23.2956 19.4027 23.3108 19.3759 23.326 19.3438L24.041 17.9663C24.0511 17.9556 24.0562 17.9449 24.0613 17.9341L24.0917 17.8859C24.0917 17.8805 24.0968 17.8805 24.0968 17.8752C24.0968 17.8698 24.1018 17.8698 24.1018 17.8645C24.1069 17.8537 24.112 17.843 24.1171 17.8377C24.1272 17.8216 24.1323 17.8055 24.1424 17.7948C24.1424 17.7894 24.1475 17.7894 24.1475 17.7841C24.1475 17.7787 24.1526 17.7787 24.1526 17.7733C24.1576 17.768 24.1627 17.7573 24.1627 17.7519C24.1678 17.7358 24.1779 17.7197 24.183 17.709C24.183 17.7037 24.1881 17.6983 24.1881 17.6929C24.1881 17.6876 24.1931 17.6876 24.1931 17.6822C24.1982 17.6769 24.1982 17.6661 24.2033 17.6608L24.2185 17.6125C24.2185 17.6072 24.2185 17.6072 24.2236 17.6018C24.2236 17.5965 24.2286 17.5911 24.2286 17.5857C24.2337 17.575 24.2337 17.5643 24.2388 17.5536C24.2438 17.5429 24.2438 17.5322 24.2489 17.5214C24.2489 17.5161 24.254 17.5054 24.254 17.5V17.4893C24.254 17.4786 24.2591 17.4678 24.2591 17.4571C24.2641 17.441 24.2641 17.425 24.2692 17.4089V17.3982V17.3821C24.2743 17.3338 24.2793 17.291 24.2793 17.2481L24.2743 16.0153C24.2743 15.9617 24.2793 15.9135 24.2844 15.8599V15.8331C24.2895 15.8063 24.2945 15.7741 24.2996 15.7473C24.2996 15.742 24.2996 15.7312 24.3047 15.7259C24.3047 15.7152 24.3098 15.7098 24.3098 15.6991L24.325 15.6348C24.325 15.6294 24.33 15.6187 24.33 15.6133C24.3351 15.5919 24.3402 15.5704 24.3503 15.549C24.3554 15.5383 24.3554 15.5329 24.3605 15.5222C24.3706 15.5008 24.3757 15.474 24.3858 15.4525C24.3858 15.4472 24.3909 15.4418 24.3909 15.4418C24.401 15.415 24.4112 15.3882 24.4264 15.3614C24.4315 15.356 24.4315 15.3507 24.4365 15.3453C24.4467 15.3239 24.4619 15.2971 24.472 15.2756C24.472 15.2703 24.4771 15.2703 24.4771 15.2649C24.4923 15.2381 24.5075 15.2167 24.5227 15.1899C24.5278 15.1845 24.5329 15.1738 24.538 15.1684C24.5481 15.1524 24.5633 15.1309 24.5735 15.1148C24.5785 15.1095 24.5836 15.0988 24.5887 15.0934C24.5988 15.0773 24.614 15.0612 24.6242 15.0452C24.6292 15.0344 24.6394 15.0237 24.6444 15.0184C24.6495 15.0076 24.6597 15.0023 24.6647 14.9916C24.6799 14.9701 24.7002 14.954 24.7154 14.9326L24.7357 14.9112C24.7712 14.8737 24.8067 14.8415 24.8473 14.8093C24.8524 14.804 24.8574 14.804 24.8625 14.7986C24.9031 14.7665 24.9436 14.7343 24.9893 14.7075L26.0035 14.0911C26.0288 14.075 26.0542 14.0536 26.0795 14.0321C26.0897 14.0268 26.0947 14.0161 26.1049 14.0107C26.1252 13.9946 26.1404 13.9786 26.1607 13.9571C26.1657 13.9518 26.1708 13.9518 26.1759 13.9464L26.186 13.9357C26.2114 13.9089 26.2418 13.8767 26.2672 13.8446L26.2722 13.8392C26.2773 13.8338 26.2824 13.8231 26.2874 13.8178C26.3027 13.7963 26.3179 13.7802 26.3382 13.7588C26.3483 13.7481 26.3534 13.7374 26.3635 13.7266C26.3737 13.7106 26.3889 13.6945 26.399 13.6784C26.399 13.6784 26.399 13.673 26.4041 13.673L26.541 13.4801L27.256 12.1723C27.2712 12.1401 27.2915 12.108 27.3118 12.0812C27.3169 12.0758 27.3219 12.0651 27.327 12.0597C27.3422 12.0383 27.3524 12.0168 27.3676 12.0008C27.3726 11.99 27.3828 11.9793 27.3878 11.9686C27.398 11.9525 27.4132 11.9364 27.4233 11.9204C27.4335 11.9096 27.4436 11.8936 27.4538 11.8828C27.4639 11.8721 27.4741 11.856 27.4842 11.8453C27.4994 11.8292 27.5146 11.8078 27.5298 11.7917L27.5603 11.7596L27.5805 11.7381C27.5958 11.7274 27.6059 11.7113 27.6211 11.7006L27.6414 11.6792C27.6566 11.6684 27.6718 11.6577 27.682 11.647C27.687 11.6416 27.6972 11.6363 27.7022 11.6309C27.7225 11.6148 27.7428 11.6041 27.7631 11.588C27.7885 11.572 27.8189 11.5559 27.8442 11.5452C27.8544 11.5398 27.8645 11.5398 27.8696 11.5344L27.9152 11.5184C27.9254 11.513 27.9355 11.513 27.9457 11.5076C27.9558 11.5076 27.9659 11.5023 27.971 11.5023C27.9862 11.5023 27.9964 11.4969 28.0116 11.4969H28.0876C28.1079 11.4969 28.1231 11.5023 28.1434 11.5023C28.1485 11.5023 28.1536 11.5023 28.1586 11.5076C28.1738 11.513 28.184 11.513 28.1992 11.5184C28.2043 11.5184 28.2093 11.5237 28.2144 11.5237C28.2347 11.5291 28.2499 11.5398 28.2651 11.5505L28.9852 11.9847L28.2296 11.513Z" fill="#C68620"/>
  <path d="M27.6109 18.2397C27.616 18.2289 27.6211 18.2236 27.6261 18.2129C27.6515 18.1593 27.6768 18.111 27.7073 18.0521C27.7225 18.0199 27.7428 17.9824 27.758 17.9502C27.7732 17.9181 27.7935 17.8859 27.8087 17.8484C27.829 17.8109 27.8493 17.7734 27.8645 17.7358C27.8848 17.6983 27.9 17.6662 27.9203 17.6286C27.9405 17.5911 27.9608 17.5536 27.9811 17.5107L28.042 17.3982C28.0622 17.3606 28.0876 17.3178 28.1079 17.2749C28.1282 17.2374 28.1484 17.1945 28.1738 17.157C28.189 17.1302 28.1992 17.1087 28.2144 17.0819L28.3056 16.9211C28.3209 16.889 28.3411 16.8622 28.3564 16.83C28.3868 16.7818 28.4121 16.7282 28.4426 16.6799C28.4628 16.6478 28.4831 16.6156 28.5034 16.5781C28.5338 16.5299 28.5643 16.4763 28.5947 16.428C28.615 16.3959 28.6353 16.3583 28.6555 16.3262C28.6758 16.2887 28.6961 16.2565 28.7215 16.219C28.7925 16.1011 28.8635 15.9831 28.9395 15.8652C28.9497 15.8545 28.9547 15.8438 28.9598 15.8277C29.0409 15.6991 29.1221 15.5704 29.2083 15.4418C29.2336 15.4096 29.2539 15.3721 29.2793 15.34C29.33 15.2649 29.3807 15.1845 29.4365 15.1095C29.4618 15.072 29.4821 15.0398 29.5075 15.0023C29.5835 14.8897 29.6596 14.7825 29.7407 14.67L29.1931 14.3323C29.1119 14.4449 29.0359 14.5521 28.9598 14.6646C28.9345 14.7021 28.9142 14.7343 28.8888 14.7665C28.833 14.8415 28.7823 14.9219 28.7316 14.9969C28.7164 15.0184 28.7063 15.0345 28.691 15.0559L28.6606 15.1041C28.5744 15.2328 28.4933 15.3614 28.4121 15.49C28.402 15.5008 28.3969 15.5115 28.3919 15.5276C28.3158 15.6455 28.2448 15.7634 28.1738 15.8813L28.1434 15.9296C28.1332 15.951 28.118 15.9671 28.1079 15.9885C28.0876 16.026 28.0673 16.0582 28.047 16.0903C28.0166 16.1439 27.9862 16.1922 27.9557 16.2404C27.9355 16.2726 27.9152 16.3101 27.8949 16.3423C27.8645 16.3959 27.834 16.4441 27.8087 16.4923C27.7935 16.5245 27.7732 16.5513 27.758 16.5835L27.6667 16.7443C27.6515 16.7711 27.6363 16.7925 27.6261 16.8193C27.6211 16.8246 27.6211 16.83 27.616 16.8354C27.5957 16.8675 27.5805 16.905 27.5602 16.9372C27.5349 16.9801 27.5146 17.023 27.4943 17.0605L27.4334 17.173C27.4132 17.2106 27.3929 17.2534 27.3726 17.291C27.3523 17.3285 27.3371 17.3606 27.3168 17.3982C27.2965 17.4357 27.2762 17.4732 27.261 17.5107C27.2458 17.5429 27.2255 17.575 27.2103 17.6072C27.19 17.6447 27.1748 17.6769 27.1596 17.709C27.1545 17.7144 27.1545 17.7198 27.1495 17.7251C27.1241 17.7733 27.1038 17.8216 27.0785 17.8645C27.0734 17.8752 27.0683 17.8859 27.0633 17.8913L27.0024 18.0199C26.9973 18.0306 26.9923 18.0467 26.9821 18.0574C26.9618 18.1057 26.9365 18.1485 26.9162 18.1914L26.0237 17.8645L25.6332 18.4969L26.1809 18.8346L26.5714 18.2021L27.4639 18.5291C27.4842 18.4862 27.5044 18.4433 27.5298 18.3951C27.5349 18.3844 27.5399 18.3683 27.5501 18.3576C27.5704 18.3254 27.5906 18.2825 27.6109 18.2397Z" fill="#E8CFAC"/>
  <path d="M27.7225 19.8691L27.1799 19.5314L25.6383 18.513L26.1809 18.8453L27.7225 19.8691Z" fill="#808080"/>
  <path d="M29.7458 14.6754L29.8422 14.8897C28.8229 16.6907 27.9862 18.8614 27.7276 19.8691L26.186 18.8507L26.5764 18.2182L27.4689 18.5452C27.829 17.7787 28.6353 16.2083 29.7458 14.6754Z" fill="white"/>
</svg>