<svg width="27" height="24" viewBox="0 0 27 24" fill="none" xmlns="http://www.w3.org/2000/svg">
  <g clip-path="url(#clip0_104_10240)">
    <path d="M10.4203 0.993774C4.571 0.993774 2.76116 8.21065 2.74428 8.32315C2.006 12.8756 2.48483 19.1063 4.55624 21.6656C5.37889 22.68 6.96725 22.7363 6.96725 22.7363L10.5469 22.7306L14.1265 22.7363C14.1265 22.7363 15.7148 22.68 16.5375 21.6656C18.611 19.1063 19.0898 12.8138 18.3516 8.4019C18.3347 8.2894 17.685 0.993774 10.4203 0.993774Z" fill="#543930"/>
    <path d="M20.25 22.6499V23.2499H0.84375V22.6499C0.84375 21.1612 1.83094 20.0643 3.34758 19.3087C5.22492 18.3712 7.91438 17.9549 10.5469 17.9512C13.1794 17.9474 15.852 18.4181 17.723 19.3649C19.2565 20.1393 20.25 21.2343 20.25 22.6499Z" fill="url(#paint0_linear_104_10240)"/>
    <path d="M10.5469 17.3193H8.63159V19.1906C8.63159 20.0362 9.41206 20.7225 10.3739 20.7225H10.722C11.6839 20.7225 12.4643 20.0362 12.4643 19.1906V17.3193H10.5469Z" fill="#E59600"/>
    <path d="M21.9797 19.6218L21.1275 23.25H24.3084V22.65C24.3105 21.3843 23.4098 20.3737 21.9797 19.6218Z" fill="#1B2B8F"/>
    <path d="M10.6313 3.00745C7.00318 3.00745 3.64294 5.40557 3.64294 10.4906C3.64294 14.5743 6.48849 16.9912 8.9649 17.7712C9.55552 17.9568 10.1251 18.0506 10.6313 18.0506C11.1333 18.0506 11.7008 17.9587 12.2872 17.7749C14.7657 16.9987 17.6197 14.5818 17.6197 10.4906C17.6197 5.40557 14.2594 3.00745 10.6313 3.00745Z" fill="#FFCA28"/>
    <path d="M11.4349 12.7612C11.4138 12.7537 11.3906 12.7481 11.3674 12.7462H9.89297C9.86977 12.7481 9.84867 12.7537 9.82547 12.7612C9.69258 12.81 9.61875 12.9318 9.68203 13.0631C9.74531 13.1943 10.0385 13.5618 10.6291 13.5618C11.2198 13.5618 11.513 13.1943 11.5762 13.0631C11.6416 12.9318 11.5678 12.8081 11.4349 12.7612Z" fill="#E59600"/>
    <path d="M7.41447 11.9831C7.98182 11.9831 8.44174 11.56 8.44174 11.0381C8.44174 10.5162 7.98182 10.0931 7.41447 10.0931C6.84713 10.0931 6.38721 10.5162 6.38721 11.0381C6.38721 11.56 6.84713 11.9831 7.41447 11.9831Z" fill="#404040"/>
    <path d="M13.8459 11.9831C14.4133 11.9831 14.8732 11.56 14.8732 11.0381C14.8732 10.5162 14.4133 10.0931 13.8459 10.0931C13.2786 10.0931 12.8187 10.5162 12.8187 11.0381C12.8187 11.56 13.2786 11.9831 13.8459 11.9831Z" fill="#404040"/>
    <path d="M8.72854 9.34123C8.53237 9.11061 8.08097 8.77686 7.20347 8.77686C6.32597 8.77686 5.87245 9.11248 5.67839 9.34123C5.5919 9.44248 5.613 9.5606 5.67417 9.63186C5.72901 9.69748 5.89354 9.75935 6.07495 9.70498C6.25636 9.6506 6.61073 9.48748 7.20347 9.48373C7.7962 9.48748 8.15057 9.6506 8.33198 9.70498C8.51339 9.75935 8.67792 9.69936 8.73276 9.63186C8.79393 9.5606 8.81503 9.44248 8.72854 9.34123Z" fill="#6D4C41"/>
    <path d="M15.584 9.34123C15.3878 9.11061 14.9364 8.77686 14.0589 8.77686C13.1814 8.77686 12.7279 9.11248 12.5339 9.34123C12.4474 9.44248 12.4685 9.5606 12.5296 9.63186C12.5845 9.69748 12.749 9.75935 12.9304 9.70498C13.1118 9.6506 13.4662 9.48748 14.0589 9.48373C14.6517 9.48748 15.006 9.6506 15.1874 9.70498C15.3689 9.75935 15.5334 9.69936 15.5882 9.63186C15.6473 9.5606 15.6684 9.44248 15.584 9.34123Z" fill="#6D4C41"/>
    <path d="M12.3315 14.2762C11.667 14.6269 9.49012 14.6269 8.82778 14.2762C8.44598 14.0756 8.05786 14.3831 8.21606 14.6906C8.37216 14.9925 9.55973 15.6956 10.5849 15.6956C11.61 15.6956 12.7829 14.9925 12.939 14.6906C13.0972 14.3831 12.7133 14.0737 12.3315 14.2762Z" fill="#795548"/>
    <path d="M17.9634 7.52251C17.9634 7.52251 17.8389 1.32751 10.5553 1.32751C3.2716 1.32751 3.1155 7.52251 3.1155 7.52251C3.1155 7.52251 2.74003 16.2919 3.27792 17.5088C3.82425 18.7463 4.73972 18.7031 4.73972 18.7031C4.73972 18.7031 4.52667 13.3013 4.57519 10.8825C4.58574 10.3294 4.49292 8.31564 5.7016 8.06439C10.1018 7.14939 12.5444 5.03439 12.5444 5.03439C13.2025 6.30751 15.2402 7.57314 15.9827 8.05876C16.5965 8.46001 16.5796 10.14 16.5986 10.8656L16.2738 18.69C16.2738 18.69 17.2652 18.7688 17.8326 17.5088C18.3895 16.2694 17.9634 7.52251 17.9634 7.52251Z" fill="#543930"/>
    <path d="M12.5106 19.605H8.31299L9.97939 23.25H11.0425L12.5106 19.605Z" fill="#F5F5F5"/>
    <path d="M8.62315 17.9944L6.98206 18.165L5.29456 21.3975L7.58956 20.5931L9.60401 23.25H10.1778L8.62315 17.9944Z" fill="url(#paint1_linear_104_10240)"/>
    <path d="M14.1139 18.165L12.4707 17.9944L10.9182 23.25H11.551L13.6709 20.625L15.8014 21.3975L14.1139 18.165Z" fill="url(#paint2_linear_104_10240)"/>
    <path d="M25.6964 10.6388C25.6247 10.5263 25.5023 10.4738 25.3821 10.4738C25.2218 10.4738 25.0657 10.5656 25.0298 10.7325L24.7219 12.2137C24.7008 12.3131 24.6291 12.3994 24.5257 12.4425L22.8213 13.1681C22.7534 13.1978 22.6765 13.2072 22.6021 13.1951C22.5276 13.1829 22.4595 13.1498 22.4079 13.1006L21.1085 11.8819C21.0305 11.8087 20.9967 11.7056 21.0157 11.6063L21.3237 10.125C21.368 9.91125 21.1781 9.75 20.9693 9.75C20.8912 9.75 20.8111 9.7725 20.7394 9.825C20.1171 10.2844 19.6594 10.9444 19.497 11.7225C19.267 12.8288 19.6889 13.8994 20.5137 14.5969C20.8849 14.9119 21.0621 15.3656 20.9693 15.8137L19.4252 23.25H21.6021L23.0766 16.1588C23.1694 15.7106 23.5174 15.3431 23.9899 15.1669C25.0404 14.7769 25.8652 13.9125 26.0951 12.8044C26.2554 12.0281 26.093 11.265 25.6964 10.6388Z" fill="url(#paint3_linear_104_10240)"/>
    <path d="M17.7251 19.365C15.8541 18.4181 13.1815 17.9475 10.549 17.9513C7.91653 17.955 5.22707 18.3713 3.34973 19.3088C2.32668 16.2582 2.18114 11.8013 2.74434 8.32315C2.76332 8.21065 4.57106 0.993774 10.4204 0.993774C17.685 0.993774 18.3347 8.2894 18.3537 8.40002C18.919 11.7938 18.7672 16.3013 17.7251 19.365Z" fill="url(#paint4_radial_104_10240)"/>
    <path d="M19.9336 22.0031L19.5328 22.4062C19.5328 22.4062 18.3347 22.1793 18.476 21.5625C18.5097 21.4162 18.805 21.105 18.805 21.105C18.805 21.105 18.2039 20.6643 18.2988 20.3662C18.3937 20.0718 18.9675 19.8431 18.9675 19.8431C18.9675 19.8431 18.5224 19.6068 18.6975 19.1625C18.8177 18.8587 19.4421 18.7575 19.4421 18.7575C19.4421 18.7575 18.8599 17.9981 20.0433 17.8256C20.4166 17.7712 21.254 17.8818 22.005 18.375C22.7559 18.8681 23.0997 19.1643 23.4457 19.8131C23.973 20.7975 23.0407 22.485 22.3256 22.5C21.7308 22.5112 19.9336 22.0031 19.9336 22.0031Z" fill="url(#paint5_linear_104_10240)"/>
    <path d="M10.4899 0.860596C14.2741 0.860596 17.7482 3.04685 18.3515 8.40185C18.3515 8.40185 16.2949 6.8981 10.5953 6.8981C4.42542 6.8981 2.72104 8.49747 2.74214 8.3231C3.40026 2.9756 6.8744 0.860596 10.5932 0.860596H10.4899Z" fill="url(#paint6_linear_104_10240)"/>
    <path d="M5.68054 6.45937C5.68054 2.94562 7.57265 1.0575 10.4899 1.0575C13.4072 1.0575 15.2993 3.02062 15.2993 6.45937C15.2993 9.25312 13.0254 7.05375 10.4899 7.05375C7.95445 7.05375 5.68054 9.255 5.68054 6.45937Z" fill="url(#paint7_linear_104_10240)"/>
    <path d="M10.5637 5.3418C5.97163 5.3418 3.76944 7.57117 3.76944 7.57117C3.76522 7.94055 4.2335 8.60617 5.29873 8.75805C6.76475 8.96805 7.71186 7.9143 10.5405 7.9143H10.5553V7.90867L10.5637 7.9143H10.5785C13.4072 7.9143 14.3522 8.96617 15.8203 8.75805C16.8855 8.60617 17.2737 8.03617 17.2694 7.66867C17.2694 7.6668 15.2107 5.3418 10.5637 5.3418Z" fill="#5E97F6"/>
  </g>
  <defs>
    <linearGradient id="paint0_linear_104_10240" x1="10.5479" y1="17.9512" x2="10.5479" y2="24.5945" gradientUnits="userSpaceOnUse">
      <stop offset="0.003" stop-color="#303F9F"/>
      <stop offset="0.472" stop-color="#273492"/>
      <stop offset="1" stop-color="#1A237E"/>
    </linearGradient>
    <linearGradient id="paint1_linear_104_10240" x1="6.46336" y1="18.6171" x2="8.2854" y2="23.6339" gradientUnits="userSpaceOnUse">
      <stop stop-color="#5C6BC0"/>
      <stop offset="1" stop-color="#3949AB"/>
    </linearGradient>
    <linearGradient id="paint2_linear_104_10240" x1="14.5589" y1="18.3876" x2="13.2354" y2="23.5723" gradientUnits="userSpaceOnUse">
      <stop stop-color="#5C6BC0"/>
      <stop offset="1" stop-color="#3949AB"/>
    </linearGradient>
    <linearGradient id="paint3_linear_104_10240" x1="23.2295" y1="9.85369" x2="21.3437" y2="23.1438" gradientUnits="userSpaceOnUse">
      <stop stop-color="#90A4AE"/>
      <stop offset="0.267" stop-color="#889DA8"/>
      <stop offset="0.584" stop-color="#78909C"/>
      <stop offset="1" stop-color="#607D8B"/>
    </linearGradient>
    <radialGradient id="paint4_radial_104_10240" cx="0" cy="0" r="1" gradientUnits="userSpaceOnUse" gradientTransform="translate(10.548 12.0585) rotate(-90) scale(12.1498 8.62485)">
      <stop offset="0.85" stop-color="#6D4C41" stop-opacity="0"/>
      <stop offset="1" stop-color="#6D4C41"/>
    </radialGradient>
    <linearGradient id="paint5_linear_104_10240" x1="18.2908" y1="20.1555" x2="23.6028" y2="20.1555" gradientUnits="userSpaceOnUse">
      <stop stop-color="#FFB300"/>
      <stop offset="0.5" stop-color="#FFCA28"/>
    </linearGradient>
    <linearGradient id="paint6_linear_104_10240" x1="10.5458" y1="7.28978" x2="10.5458" y2="-0.250904" gradientUnits="userSpaceOnUse">
      <stop stop-color="#0068B5"/>
      <stop offset="0.807" stop-color="#4C8EEA"/>
      <stop offset="1" stop-color="#5E97F6"/>
    </linearGradient>
    <linearGradient id="paint7_linear_104_10240" x1="10.4889" y1="8.52431" x2="10.4889" y2="3.69506" gradientUnits="userSpaceOnUse">
      <stop stop-color="#0068B5"/>
      <stop offset="1" stop-color="#5E97F6"/>
    </linearGradient>
    <clipPath id="clip0_104_10240">
      <rect width="27" height="24" fill="white"/>
    </clipPath>
  </defs>
</svg>